<svg width="17" height="17" viewBox="0 0 17 17" fill="none" xmlns="http://www.w3.org/2000/svg">
<path d="M2.9906 14.0095C3.31917 14.3385 3.70953 14.5994 4.13924 14.7771C4.56895 14.9548 5.02955 15.0459 5.49456 15.045C5.95967 15.0459 6.42036 14.9548 6.85018 14.7771C7.28 14.5994 7.67049 14.3385 7.99922 14.0095L10.0024 12.0056L9.00081 11.004L6.99764 13.0079C6.59847 13.4053 6.05816 13.6284 5.49491 13.6284C4.93166 13.6284 4.39135 13.4053 3.99218 13.0079C3.59445 12.6089 3.37112 12.0685 3.37112 11.5051C3.37112 10.9418 3.59445 10.4014 3.99218 10.0024L5.99606 7.99925L4.99447 6.99767L2.9906 9.00084C2.32746 9.66558 1.95505 10.5662 1.95505 11.5051C1.95505 12.4441 2.32746 13.3447 2.9906 14.0095ZM14.0094 7.99925C14.6722 7.33433 15.0444 6.43378 15.0444 5.49494C15.0444 4.5561 14.6722 3.65555 14.0094 2.99063C13.3447 2.32749 12.4441 1.95508 11.5051 1.95508C10.5662 1.95508 9.66555 2.32749 9.00081 2.99063L6.99764 4.9945L7.99922 5.99609L10.0024 3.99221C10.4016 3.59483 10.9419 3.37173 11.5051 3.37173C12.0684 3.37173 12.6087 3.59483 13.0078 3.99221C13.4056 4.3912 13.6289 4.93158 13.6289 5.49494C13.6289 6.0583 13.4056 6.59869 13.0078 6.99767L11.004 9.00084L12.0056 10.0024L14.0094 7.99925Z" fill="white"/>
<path d="M5.99533 12.0063L4.99304 11.0047L11.0047 4.99377L12.0063 5.99607L5.99533 12.0063Z" fill="white"/>
</svg>
