<svg width="22" height="24" viewBox="0 0 22 24" fill="none" xmlns="http://www.w3.org/2000/svg">
<path d="M13 1V6.5" stroke="white" stroke-opacity="0.5" stroke-linecap="round"/>
<path d="M12.25 7.25C11.5245 7.34069 10.1026 8.5085 9.55553 9.05556C8.92624 9.68484 7.93055 9.93053 7.30553 10.5556C6.71587 11.1452 5.39444 11.1344 4.69442 11.6944C4.48276 11.8638 3.51255 12.2191 3.24998 12.25C2.78246 12.305 2.39055 12.8706 1.88887 13.0139C0.379641 13.4451 2.55953 14.4516 2.88887 14.875C3.46452 15.6151 4.23483 16.9879 4.87498 17.5C5.9317 18.3454 6.64588 19.3074 7.49998 20.375C8.12243 21.1531 9.49982 21.0338 10.1944 21.8056C10.5743 22.2276 10.8534 22.8428 11.3055 23.1944C11.4205 23.2838 12.224 22.2211 12.25 22C12.3975 20.7462 14.1313 20.7073 14.6944 19.75C15.1617 18.9557 16.4538 18.6573 17.0555 18.0556C17.3869 17.7242 17.7238 17.5709 18.0555 17.3056C18.3981 17.0315 18.992 16.4768 19.3889 16.25C22.8565 14.2685 17.528 13.2856 16.9861 11.3889C16.86 10.9476 16.1123 10.8181 16.0139 10.375C15.9114 9.91399 15.5885 9.58601 15.4861 9.125C15.3404 8.46944 14.1302 7.31511 13.5 7" stroke="white" stroke-opacity="0.5" stroke-linecap="round"/>
<path d="M12.5 1.25C13.1972 1.25 13.8378 2.07024 14.375 2.5C14.707 2.76558 15.3424 3.69905 15.75 3.75C15.9435 3.77419 17.048 4.87253 17.25 5.125C17.6846 5.66827 18.6678 5.83159 19.1944 6.30556C19.797 6.84788 20.75 6.95128 20.75 7.875C20.75 8.6236 20.5369 9.37288 20.5 10C20.4234 11.303 20.1908 13.3815 20.75 14.5" stroke="white" stroke-opacity="0.5" stroke-linecap="round"/>
<path d="M12.25 1.5C11.3321 1.5 11.1619 2.2573 10.3611 2.48611C9.73043 2.66631 9.45069 3.56766 8.86111 3.73611C8.56825 3.81979 7.20348 4.62064 7 4.875C6.70549 5.24314 5.54111 5.61325 5.11111 5.73611C4.47376 5.91821 3.63454 6.21267 3 6.25C1.92139 6.31345 1.75 6.7183 1.75 7.75C1.75 9.62407 1 11.2271 1 13" stroke="white" stroke-opacity="0.5" stroke-linecap="round"/>
<path d="M1.5 7C2.71036 7 3.37338 8.22078 4.25 9C5.04074 9.70288 5.79657 10.4355 6.55556 11.1944C7.35654 11.9954 8.26363 13.2834 9.25 13.8056C10.0132 14.2096 11.114 14.9781 11.5 15.75" stroke="white" stroke-opacity="0.5" stroke-linecap="round"/>
<path d="M20.25 7.5C20.118 8.68771 18.8041 9.30698 18.0556 10.0556C17.2253 10.8858 16.0952 11.4518 15.25 12.25C14.1808 13.2598 12.4901 14.8799 11.25 15.5" stroke="white" stroke-opacity="0.5" stroke-linecap="round"/>
<path d="M10.75 16C10.75 17.375 10.75 18.75 10.75 20.125C10.75 21.1902 11.25 21.9855 11.25 23" stroke="white" stroke-opacity="0.5" stroke-linecap="round"/>
</svg>
