<svg width="26" height="27" viewBox="0 0 26 27" fill="none" xmlns="http://www.w3.org/2000/svg">
<path d="M13 0L12.4373 0.374667L0.437333 8.40667L0 8.68667V17.6253L0.437333 17.9053L12.4373 25.9373L13 26.312L13.5627 25.9373L25.5627 17.9067L26 17.6253V8.68667L25.5627 8.40667L13.5627 0.374667L13 0ZM12 3.06267V8.5L6.844 11.968L2.812 9.24933L12 3.06267V3.06267ZM14 3.06267L23.1867 9.24933L19.156 11.9693L14 8.5V3.06267ZM13 10.2493L17.344 13.156L13 16.0627L8.656 13.156L13 10.2493ZM2 11.0933L5.06267 13.156L2 15.2187V11.0933V11.0933ZM24 11.0933V15.2187L20.9373 13.156L24 11.0933ZM6.87467 14.344L12 17.812V23.2493L2.81333 17.0627L6.87467 14.3427V14.344ZM19.1253 14.344L23.188 17.0627L14 23.2493V17.812L19.1253 14.344V14.344Z" fill="white"/>
</svg>
