<svg width="525" height="527" viewBox="0 0 525 527" fill="none" xmlns="http://www.w3.org/2000/svg">
<g clip-path="url(#clip0_1184_260)">
<g opacity="0.65">
<path d="M0 0.5C0.276142 0.5 0.5 0.276142 0.5 0C0.5 -0.276142 0.276142 -0.5 0 -0.5C-0.276142 -0.5 -0.5 -0.276142 -0.5 0C-0.5 0.276142 -0.276142 0.5 0 0.5Z" fill="#CACAD4"/>
<path d="M53.3333 0.5C53.6095 0.5 53.8333 0.276142 53.8333 0C53.8333 -0.276142 53.6095 -0.5 53.3333 -0.5C53.0572 -0.5 52.8333 -0.276142 52.8333 0C52.8333 0.276142 53.0572 0.5 53.3333 0.5Z" fill="#CACAD4"/>
<path d="M106.667 0.5C106.943 0.5 107.167 0.276142 107.167 0C107.167 -0.276142 106.943 -0.5 106.667 -0.5C106.391 -0.5 106.167 -0.276142 106.167 0C106.167 0.276142 106.391 0.5 106.667 0.5Z" fill="#CACAD4"/>
<path d="M160 0.5C160.276 0.5 160.5 0.276142 160.5 0C160.5 -0.276142 160.276 -0.5 160 -0.5C159.724 -0.5 159.5 -0.276142 159.5 0C159.5 0.276142 159.724 0.5 160 0.5Z" fill="#CACAD4"/>
<path d="M213.333 0.5C213.609 0.5 213.833 0.276142 213.833 0C213.833 -0.276142 213.609 -0.5 213.333 -0.5C213.057 -0.5 212.833 -0.276142 212.833 0C212.833 0.276142 213.057 0.5 213.333 0.5Z" fill="#CACAD4"/>
<path d="M266.667 0.5C266.943 0.5 267.167 0.276142 267.167 0C267.167 -0.276142 266.943 -0.5 266.667 -0.5C266.39 -0.5 266.167 -0.276142 266.167 0C266.167 0.276142 266.39 0.5 266.667 0.5Z" fill="#CACAD4"/>
<path d="M320 0.5C320.276 0.5 320.5 0.276142 320.5 0C320.5 -0.276142 320.276 -0.5 320 -0.5C319.724 -0.5 319.5 -0.276142 319.5 0C319.5 0.276142 319.724 0.5 320 0.5Z" fill="#CACAD4"/>
<path d="M373.333 0.5C373.61 0.5 373.833 0.276142 373.833 0C373.833 -0.276142 373.61 -0.5 373.333 -0.5C373.057 -0.5 372.833 -0.276142 372.833 0C372.833 0.276142 373.057 0.5 373.333 0.5Z" fill="#CACAD4"/>
<path d="M426.667 0.5C426.943 0.5 427.167 0.276142 427.167 0C427.167 -0.276142 426.943 -0.5 426.667 -0.5C426.39 -0.5 426.167 -0.276142 426.167 0C426.167 0.276142 426.39 0.5 426.667 0.5Z" fill="#CACAD4"/>
<path d="M480 0.5C480.276 0.5 480.5 0.276142 480.5 0C480.5 -0.276142 480.276 -0.5 480 -0.5C479.724 -0.5 479.5 -0.276142 479.5 0C479.5 0.276142 479.724 0.5 480 0.5Z" fill="#CACAD4"/>
<path d="M0 53.8333C0.276142 53.8333 0.5 53.6095 0.5 53.3333C0.5 53.0572 0.276142 52.8333 0 52.8333C-0.276142 52.8333 -0.5 53.0572 -0.5 53.3333C-0.5 53.6095 -0.276142 53.8333 0 53.8333Z" fill="#CACAD4"/>
<path d="M53.3333 53.8333C53.6095 53.8333 53.8333 53.6095 53.8333 53.3333C53.8333 53.0572 53.6095 52.8333 53.3333 52.8333C53.0572 52.8333 52.8333 53.0572 52.8333 53.3333C52.8333 53.6095 53.0572 53.8333 53.3333 53.8333Z" fill="#CACAD4"/>
<path d="M106.667 53.8333C106.943 53.8333 107.167 53.6095 107.167 53.3333C107.167 53.0572 106.943 52.8333 106.667 52.8333C106.391 52.8333 106.167 53.0572 106.167 53.3333C106.167 53.6095 106.391 53.8333 106.667 53.8333Z" fill="#CACAD4"/>
<path d="M160 53.8333C160.276 53.8333 160.5 53.6095 160.5 53.3333C160.5 53.0572 160.276 52.8333 160 52.8333C159.724 52.8333 159.5 53.0572 159.5 53.3333C159.5 53.6095 159.724 53.8333 160 53.8333Z" fill="#CACAD4"/>
<path d="M213.333 53.8333C213.609 53.8333 213.833 53.6095 213.833 53.3333C213.833 53.0572 213.609 52.8333 213.333 52.8333C213.057 52.8333 212.833 53.0572 212.833 53.3333C212.833 53.6095 213.057 53.8333 213.333 53.8333Z" fill="#CACAD4"/>
<path d="M266.667 53.8333C266.943 53.8333 267.167 53.6095 267.167 53.3333C267.167 53.0572 266.943 52.8333 266.667 52.8333C266.39 52.8333 266.167 53.0572 266.167 53.3333C266.167 53.6095 266.39 53.8333 266.667 53.8333Z" fill="#CACAD4"/>
<path d="M320 53.8333C320.276 53.8333 320.5 53.6095 320.5 53.3333C320.5 53.0572 320.276 52.8333 320 52.8333C319.724 52.8333 319.5 53.0572 319.5 53.3333C319.5 53.6095 319.724 53.8333 320 53.8333Z" fill="#CACAD4"/>
<path d="M373.333 53.8333C373.61 53.8333 373.833 53.6095 373.833 53.3333C373.833 53.0572 373.61 52.8333 373.333 52.8333C373.057 52.8333 372.833 53.0572 372.833 53.3333C372.833 53.6095 373.057 53.8333 373.333 53.8333Z" fill="#CACAD4"/>
<path d="M426.667 53.8333C426.943 53.8333 427.167 53.6095 427.167 53.3333C427.167 53.0572 426.943 52.8333 426.667 52.8333C426.39 52.8333 426.167 53.0572 426.167 53.3333C426.167 53.6095 426.39 53.8333 426.667 53.8333Z" fill="#CACAD4"/>
<path d="M480 53.8333C480.276 53.8333 480.5 53.6095 480.5 53.3333C480.5 53.0572 480.276 52.8333 480 52.8333C479.724 52.8333 479.5 53.0572 479.5 53.3333C479.5 53.6095 479.724 53.8333 480 53.8333Z" fill="#CACAD4"/>
<path d="M0 107.167C0.276142 107.167 0.5 106.943 0.5 106.667C0.5 106.391 0.276142 106.167 0 106.167C-0.276142 106.167 -0.5 106.391 -0.5 106.667C-0.5 106.943 -0.276142 107.167 0 107.167Z" fill="#CACAD4"/>
<path d="M53.3333 107.167C53.6095 107.167 53.8333 106.943 53.8333 106.667C53.8333 106.391 53.6095 106.167 53.3333 106.167C53.0572 106.167 52.8333 106.391 52.8333 106.667C52.8333 106.943 53.0572 107.167 53.3333 107.167Z" fill="#CACAD4"/>
<path d="M106.667 107.167C106.943 107.167 107.167 106.943 107.167 106.667C107.167 106.391 106.943 106.167 106.667 106.167C106.391 106.167 106.167 106.391 106.167 106.667C106.167 106.943 106.391 107.167 106.667 107.167Z" fill="#CACAD4"/>
<path d="M160 107.167C160.276 107.167 160.5 106.943 160.5 106.667C160.5 106.391 160.276 106.167 160 106.167C159.724 106.167 159.5 106.391 159.5 106.667C159.5 106.943 159.724 107.167 160 107.167Z" fill="#CACAD4"/>
<path d="M213.333 107.167C213.609 107.167 213.833 106.943 213.833 106.667C213.833 106.391 213.609 106.167 213.333 106.167C213.057 106.167 212.833 106.391 212.833 106.667C212.833 106.943 213.057 107.167 213.333 107.167Z" fill="#CACAD4"/>
<path d="M266.667 107.167C266.943 107.167 267.167 106.943 267.167 106.667C267.167 106.391 266.943 106.167 266.667 106.167C266.39 106.167 266.167 106.391 266.167 106.667C266.167 106.943 266.39 107.167 266.667 107.167Z" fill="#CACAD4"/>
<path d="M320 107.167C320.276 107.167 320.5 106.943 320.5 106.667C320.5 106.391 320.276 106.167 320 106.167C319.724 106.167 319.5 106.391 319.5 106.667C319.5 106.943 319.724 107.167 320 107.167Z" fill="#CACAD4"/>
<path d="M373.333 107.167C373.61 107.167 373.833 106.943 373.833 106.667C373.833 106.391 373.61 106.167 373.333 106.167C373.057 106.167 372.833 106.391 372.833 106.667C372.833 106.943 373.057 107.167 373.333 107.167Z" fill="#CACAD4"/>
<path d="M426.667 107.167C426.943 107.167 427.167 106.943 427.167 106.667C427.167 106.391 426.943 106.167 426.667 106.167C426.39 106.167 426.167 106.391 426.167 106.667C426.167 106.943 426.39 107.167 426.667 107.167Z" fill="#CACAD4"/>
<path d="M480 107.167C480.276 107.167 480.5 106.943 480.5 106.667C480.5 106.391 480.276 106.167 480 106.167C479.724 106.167 479.5 106.391 479.5 106.667C479.5 106.943 479.724 107.167 480 107.167Z" fill="#CACAD4"/>
<path d="M0 160.5C0.276142 160.5 0.5 160.276 0.5 160C0.5 159.724 0.276142 159.5 0 159.5C-0.276142 159.5 -0.5 159.724 -0.5 160C-0.5 160.276 -0.276142 160.5 0 160.5Z" fill="#CACAD4"/>
<path d="M53.3333 160.5C53.6095 160.5 53.8333 160.276 53.8333 160C53.8333 159.724 53.6095 159.5 53.3333 159.5C53.0572 159.5 52.8333 159.724 52.8333 160C52.8333 160.276 53.0572 160.5 53.3333 160.5Z" fill="#CACAD4"/>
<path d="M106.667 160.5C106.943 160.5 107.167 160.276 107.167 160C107.167 159.724 106.943 159.5 106.667 159.5C106.391 159.5 106.167 159.724 106.167 160C106.167 160.276 106.391 160.5 106.667 160.5Z" fill="#CACAD4"/>
<path d="M160 160.5C160.276 160.5 160.5 160.276 160.5 160C160.5 159.724 160.276 159.5 160 159.5C159.724 159.5 159.5 159.724 159.5 160C159.5 160.276 159.724 160.5 160 160.5Z" fill="#CACAD4"/>
<path d="M213.333 160.5C213.609 160.5 213.833 160.276 213.833 160C213.833 159.724 213.609 159.5 213.333 159.5C213.057 159.5 212.833 159.724 212.833 160C212.833 160.276 213.057 160.5 213.333 160.5Z" fill="#CACAD4"/>
<path d="M266.667 160.5C266.943 160.5 267.167 160.276 267.167 160C267.167 159.724 266.943 159.5 266.667 159.5C266.39 159.5 266.167 159.724 266.167 160C266.167 160.276 266.39 160.5 266.667 160.5Z" fill="#CACAD4"/>
<path d="M320 160.5C320.276 160.5 320.5 160.276 320.5 160C320.5 159.724 320.276 159.5 320 159.5C319.724 159.5 319.5 159.724 319.5 160C319.5 160.276 319.724 160.5 320 160.5Z" fill="#CACAD4"/>
<path d="M373.333 160.5C373.61 160.5 373.833 160.276 373.833 160C373.833 159.724 373.61 159.5 373.333 159.5C373.057 159.5 372.833 159.724 372.833 160C372.833 160.276 373.057 160.5 373.333 160.5Z" fill="#CACAD4"/>
<path d="M426.667 160.5C426.943 160.5 427.167 160.276 427.167 160C427.167 159.724 426.943 159.5 426.667 159.5C426.39 159.5 426.167 159.724 426.167 160C426.167 160.276 426.39 160.5 426.667 160.5Z" fill="#CACAD4"/>
<path d="M480 160.5C480.276 160.5 480.5 160.276 480.5 160C480.5 159.724 480.276 159.5 480 159.5C479.724 159.5 479.5 159.724 479.5 160C479.5 160.276 479.724 160.5 480 160.5Z" fill="#CACAD4"/>
<path d="M0 213.833C0.276142 213.833 0.5 213.609 0.5 213.333C0.5 213.057 0.276142 212.833 0 212.833C-0.276142 212.833 -0.5 213.057 -0.5 213.333C-0.5 213.609 -0.276142 213.833 0 213.833Z" fill="#CACAD4"/>
<path d="M53.3333 213.833C53.6095 213.833 53.8333 213.609 53.8333 213.333C53.8333 213.057 53.6095 212.833 53.3333 212.833C53.0572 212.833 52.8333 213.057 52.8333 213.333C52.8333 213.609 53.0572 213.833 53.3333 213.833Z" fill="#CACAD4"/>
<path d="M106.667 213.833C106.943 213.833 107.167 213.609 107.167 213.333C107.167 213.057 106.943 212.833 106.667 212.833C106.391 212.833 106.167 213.057 106.167 213.333C106.167 213.609 106.391 213.833 106.667 213.833Z" fill="#CACAD4"/>
<path d="M160 213.833C160.276 213.833 160.5 213.609 160.5 213.333C160.5 213.057 160.276 212.833 160 212.833C159.724 212.833 159.5 213.057 159.5 213.333C159.5 213.609 159.724 213.833 160 213.833Z" fill="#CACAD4"/>
<path d="M213.333 213.833C213.609 213.833 213.833 213.609 213.833 213.333C213.833 213.057 213.609 212.833 213.333 212.833C213.057 212.833 212.833 213.057 212.833 213.333C212.833 213.609 213.057 213.833 213.333 213.833Z" fill="#CACAD4"/>
<path d="M266.667 213.833C266.943 213.833 267.167 213.609 267.167 213.333C267.167 213.057 266.943 212.833 266.667 212.833C266.39 212.833 266.167 213.057 266.167 213.333C266.167 213.609 266.39 213.833 266.667 213.833Z" fill="#CACAD4"/>
<path d="M320 213.833C320.276 213.833 320.5 213.609 320.5 213.333C320.5 213.057 320.276 212.833 320 212.833C319.724 212.833 319.5 213.057 319.5 213.333C319.5 213.609 319.724 213.833 320 213.833Z" fill="#CACAD4"/>
<path d="M373.333 213.833C373.61 213.833 373.833 213.609 373.833 213.333C373.833 213.057 373.61 212.833 373.333 212.833C373.057 212.833 372.833 213.057 372.833 213.333C372.833 213.609 373.057 213.833 373.333 213.833Z" fill="#CACAD4"/>
<path d="M426.667 213.833C426.943 213.833 427.167 213.609 427.167 213.333C427.167 213.057 426.943 212.833 426.667 212.833C426.39 212.833 426.167 213.057 426.167 213.333C426.167 213.609 426.39 213.833 426.667 213.833Z" fill="#CACAD4"/>
<path d="M480 213.833C480.276 213.833 480.5 213.609 480.5 213.333C480.5 213.057 480.276 212.833 480 212.833C479.724 212.833 479.5 213.057 479.5 213.333C479.5 213.609 479.724 213.833 480 213.833Z" fill="#CACAD4"/>
<path d="M0 267.167C0.276142 267.167 0.5 266.943 0.5 266.667C0.5 266.391 0.276142 266.167 0 266.167C-0.276142 266.167 -0.5 266.391 -0.5 266.667C-0.5 266.943 -0.276142 267.167 0 267.167Z" fill="#CACAD4"/>
<path d="M53.3333 267.167C53.6095 267.167 53.8333 266.943 53.8333 266.667C53.8333 266.391 53.6095 266.167 53.3333 266.167C53.0572 266.167 52.8333 266.391 52.8333 266.667C52.8333 266.943 53.0572 267.167 53.3333 267.167Z" fill="#CACAD4"/>
<path d="M106.667 267.167C106.943 267.167 107.167 266.943 107.167 266.667C107.167 266.391 106.943 266.167 106.667 266.167C106.391 266.167 106.167 266.391 106.167 266.667C106.167 266.943 106.391 267.167 106.667 267.167Z" fill="#CACAD4"/>
<path d="M160 267.167C160.276 267.167 160.5 266.943 160.5 266.667C160.5 266.391 160.276 266.167 160 266.167C159.724 266.167 159.5 266.391 159.5 266.667C159.5 266.943 159.724 267.167 160 267.167Z" fill="#CACAD4"/>
<path d="M213.333 267.167C213.609 267.167 213.833 266.943 213.833 266.667C213.833 266.391 213.609 266.167 213.333 266.167C213.057 266.167 212.833 266.391 212.833 266.667C212.833 266.943 213.057 267.167 213.333 267.167Z" fill="#CACAD4"/>
<path d="M266.667 267.167C266.943 267.167 267.167 266.943 267.167 266.667C267.167 266.391 266.943 266.167 266.667 266.167C266.39 266.167 266.167 266.391 266.167 266.667C266.167 266.943 266.39 267.167 266.667 267.167Z" fill="#CACAD4"/>
<path d="M320 267.167C320.276 267.167 320.5 266.943 320.5 266.667C320.5 266.391 320.276 266.167 320 266.167C319.724 266.167 319.5 266.391 319.5 266.667C319.5 266.943 319.724 267.167 320 267.167Z" fill="#CACAD4"/>
<path d="M373.333 267.167C373.61 267.167 373.833 266.943 373.833 266.667C373.833 266.391 373.61 266.167 373.333 266.167C373.057 266.167 372.833 266.391 372.833 266.667C372.833 266.943 373.057 267.167 373.333 267.167Z" fill="#CACAD4"/>
<path d="M426.667 267.167C426.943 267.167 427.167 266.943 427.167 266.667C427.167 266.391 426.943 266.167 426.667 266.167C426.39 266.167 426.167 266.391 426.167 266.667C426.167 266.943 426.39 267.167 426.667 267.167Z" fill="#CACAD4"/>
<path d="M480 267.167C480.276 267.167 480.5 266.943 480.5 266.667C480.5 266.391 480.276 266.167 480 266.167C479.724 266.167 479.5 266.391 479.5 266.667C479.5 266.943 479.724 267.167 480 267.167Z" fill="#CACAD4"/>
<path d="M0 320.5C0.276142 320.5 0.5 320.276 0.5 320C0.5 319.724 0.276142 319.5 0 319.5C-0.276142 319.5 -0.5 319.724 -0.5 320C-0.5 320.276 -0.276142 320.5 0 320.5Z" fill="#CACAD4"/>
<path d="M53.3333 320.5C53.6095 320.5 53.8333 320.276 53.8333 320C53.8333 319.724 53.6095 319.5 53.3333 319.5C53.0572 319.5 52.8333 319.724 52.8333 320C52.8333 320.276 53.0572 320.5 53.3333 320.5Z" fill="#CACAD4"/>
<path d="M106.667 320.5C106.943 320.5 107.167 320.276 107.167 320C107.167 319.724 106.943 319.5 106.667 319.5C106.391 319.5 106.167 319.724 106.167 320C106.167 320.276 106.391 320.5 106.667 320.5Z" fill="#CACAD4"/>
<path d="M160 320.5C160.276 320.5 160.5 320.276 160.5 320C160.5 319.724 160.276 319.5 160 319.5C159.724 319.5 159.5 319.724 159.5 320C159.5 320.276 159.724 320.5 160 320.5Z" fill="#CACAD4"/>
<path d="M213.333 320.5C213.609 320.5 213.833 320.276 213.833 320C213.833 319.724 213.609 319.5 213.333 319.5C213.057 319.5 212.833 319.724 212.833 320C212.833 320.276 213.057 320.5 213.333 320.5Z" fill="#CACAD4"/>
<path d="M266.667 320.5C266.943 320.5 267.167 320.276 267.167 320C267.167 319.724 266.943 319.5 266.667 319.5C266.39 319.5 266.167 319.724 266.167 320C266.167 320.276 266.39 320.5 266.667 320.5Z" fill="#CACAD4"/>
<path d="M320 320.5C320.276 320.5 320.5 320.276 320.5 320C320.5 319.724 320.276 319.5 320 319.5C319.724 319.5 319.5 319.724 319.5 320C319.5 320.276 319.724 320.5 320 320.5Z" fill="#CACAD4"/>
<path d="M373.333 320.5C373.61 320.5 373.833 320.276 373.833 320C373.833 319.724 373.61 319.5 373.333 319.5C373.057 319.5 372.833 319.724 372.833 320C372.833 320.276 373.057 320.5 373.333 320.5Z" fill="#CACAD4"/>
<path d="M426.667 320.5C426.943 320.5 427.167 320.276 427.167 320C427.167 319.724 426.943 319.5 426.667 319.5C426.39 319.5 426.167 319.724 426.167 320C426.167 320.276 426.39 320.5 426.667 320.5Z" fill="#CACAD4"/>
<path d="M480 320.5C480.276 320.5 480.5 320.276 480.5 320C480.5 319.724 480.276 319.5 480 319.5C479.724 319.5 479.5 319.724 479.5 320C479.5 320.276 479.724 320.5 480 320.5Z" fill="#CACAD4"/>
<path d="M0 373.833C0.276142 373.833 0.5 373.609 0.5 373.333C0.5 373.057 0.276142 372.833 0 372.833C-0.276142 372.833 -0.5 373.057 -0.5 373.333C-0.5 373.609 -0.276142 373.833 0 373.833Z" fill="#CACAD4"/>
<path d="M53.3333 373.833C53.6095 373.833 53.8333 373.609 53.8333 373.333C53.8333 373.057 53.6095 372.833 53.3333 372.833C53.0572 372.833 52.8333 373.057 52.8333 373.333C52.8333 373.609 53.0572 373.833 53.3333 373.833Z" fill="#CACAD4"/>
<path d="M106.667 373.833C106.943 373.833 107.167 373.609 107.167 373.333C107.167 373.057 106.943 372.833 106.667 372.833C106.391 372.833 106.167 373.057 106.167 373.333C106.167 373.609 106.391 373.833 106.667 373.833Z" fill="#CACAD4"/>
<path d="M160 373.833C160.276 373.833 160.5 373.609 160.5 373.333C160.5 373.057 160.276 372.833 160 372.833C159.724 372.833 159.5 373.057 159.5 373.333C159.5 373.609 159.724 373.833 160 373.833Z" fill="#CACAD4"/>
<path d="M213.333 373.833C213.609 373.833 213.833 373.609 213.833 373.333C213.833 373.057 213.609 372.833 213.333 372.833C213.057 372.833 212.833 373.057 212.833 373.333C212.833 373.609 213.057 373.833 213.333 373.833Z" fill="#CACAD4"/>
<path d="M266.667 373.833C266.943 373.833 267.167 373.609 267.167 373.333C267.167 373.057 266.943 372.833 266.667 372.833C266.39 372.833 266.167 373.057 266.167 373.333C266.167 373.609 266.39 373.833 266.667 373.833Z" fill="#CACAD4"/>
<path d="M320 373.833C320.276 373.833 320.5 373.609 320.5 373.333C320.5 373.057 320.276 372.833 320 372.833C319.724 372.833 319.5 373.057 319.5 373.333C319.5 373.609 319.724 373.833 320 373.833Z" fill="#CACAD4"/>
<path d="M373.333 373.833C373.61 373.833 373.833 373.609 373.833 373.333C373.833 373.057 373.61 372.833 373.333 372.833C373.057 372.833 372.833 373.057 372.833 373.333C372.833 373.609 373.057 373.833 373.333 373.833Z" fill="#CACAD4"/>
<path d="M426.667 373.833C426.943 373.833 427.167 373.609 427.167 373.333C427.167 373.057 426.943 372.833 426.667 372.833C426.39 372.833 426.167 373.057 426.167 373.333C426.167 373.609 426.39 373.833 426.667 373.833Z" fill="#CACAD4"/>
<path d="M480 373.833C480.276 373.833 480.5 373.609 480.5 373.333C480.5 373.057 480.276 372.833 480 372.833C479.724 372.833 479.5 373.057 479.5 373.333C479.5 373.609 479.724 373.833 480 373.833Z" fill="#CACAD4"/>
<path d="M0 427.167C0.276142 427.167 0.5 426.943 0.5 426.667C0.5 426.391 0.276142 426.167 0 426.167C-0.276142 426.167 -0.5 426.391 -0.5 426.667C-0.5 426.943 -0.276142 427.167 0 427.167Z" fill="#CACAD4"/>
<path d="M53.3333 427.167C53.6095 427.167 53.8333 426.943 53.8333 426.667C53.8333 426.391 53.6095 426.167 53.3333 426.167C53.0572 426.167 52.8333 426.391 52.8333 426.667C52.8333 426.943 53.0572 427.167 53.3333 427.167Z" fill="#CACAD4"/>
<path d="M106.667 427.167C106.943 427.167 107.167 426.943 107.167 426.667C107.167 426.391 106.943 426.167 106.667 426.167C106.391 426.167 106.167 426.391 106.167 426.667C106.167 426.943 106.391 427.167 106.667 427.167Z" fill="#CACAD4"/>
<path d="M160 427.167C160.276 427.167 160.5 426.943 160.5 426.667C160.5 426.391 160.276 426.167 160 426.167C159.724 426.167 159.5 426.391 159.5 426.667C159.5 426.943 159.724 427.167 160 427.167Z" fill="#CACAD4"/>
<path d="M213.333 427.167C213.609 427.167 213.833 426.943 213.833 426.667C213.833 426.391 213.609 426.167 213.333 426.167C213.057 426.167 212.833 426.391 212.833 426.667C212.833 426.943 213.057 427.167 213.333 427.167Z" fill="#CACAD4"/>
<path d="M266.667 427.167C266.943 427.167 267.167 426.943 267.167 426.667C267.167 426.391 266.943 426.167 266.667 426.167C266.39 426.167 266.167 426.391 266.167 426.667C266.167 426.943 266.39 427.167 266.667 427.167Z" fill="#CACAD4"/>
<path d="M320 427.167C320.276 427.167 320.5 426.943 320.5 426.667C320.5 426.391 320.276 426.167 320 426.167C319.724 426.167 319.5 426.391 319.5 426.667C319.5 426.943 319.724 427.167 320 427.167Z" fill="#CACAD4"/>
<path d="M373.333 427.167C373.61 427.167 373.833 426.943 373.833 426.667C373.833 426.391 373.61 426.167 373.333 426.167C373.057 426.167 372.833 426.391 372.833 426.667C372.833 426.943 373.057 427.167 373.333 427.167Z" fill="#CACAD4"/>
<path d="M426.667 427.167C426.943 427.167 427.167 426.943 427.167 426.667C427.167 426.391 426.943 426.167 426.667 426.167C426.39 426.167 426.167 426.391 426.167 426.667C426.167 426.943 426.39 427.167 426.667 427.167Z" fill="#CACAD4"/>
<path d="M480 427.167C480.276 427.167 480.5 426.943 480.5 426.667C480.5 426.391 480.276 426.167 480 426.167C479.724 426.167 479.5 426.391 479.5 426.667C479.5 426.943 479.724 427.167 480 427.167Z" fill="#CACAD4"/>
<path d="M0 480.5C0.276142 480.5 0.5 480.276 0.5 480C0.5 479.724 0.276142 479.5 0 479.5C-0.276142 479.5 -0.5 479.724 -0.5 480C-0.5 480.276 -0.276142 480.5 0 480.5Z" fill="#CACAD4"/>
<path d="M53.3333 480.5C53.6095 480.5 53.8333 480.276 53.8333 480C53.8333 479.724 53.6095 479.5 53.3333 479.5C53.0572 479.5 52.8333 479.724 52.8333 480C52.8333 480.276 53.0572 480.5 53.3333 480.5Z" fill="#CACAD4"/>
<path d="M106.667 480.5C106.943 480.5 107.167 480.276 107.167 480C107.167 479.724 106.943 479.5 106.667 479.5C106.391 479.5 106.167 479.724 106.167 480C106.167 480.276 106.391 480.5 106.667 480.5Z" fill="#CACAD4"/>
<path d="M160 480.5C160.276 480.5 160.5 480.276 160.5 480C160.5 479.724 160.276 479.5 160 479.5C159.724 479.5 159.5 479.724 159.5 480C159.5 480.276 159.724 480.5 160 480.5Z" fill="#CACAD4"/>
<path d="M213.333 480.5C213.609 480.5 213.833 480.276 213.833 480C213.833 479.724 213.609 479.5 213.333 479.5C213.057 479.5 212.833 479.724 212.833 480C212.833 480.276 213.057 480.5 213.333 480.5Z" fill="#CACAD4"/>
<path d="M266.667 480.5C266.943 480.5 267.167 480.276 267.167 480C267.167 479.724 266.943 479.5 266.667 479.5C266.39 479.5 266.167 479.724 266.167 480C266.167 480.276 266.39 480.5 266.667 480.5Z" fill="#CACAD4"/>
<path d="M320 480.5C320.276 480.5 320.5 480.276 320.5 480C320.5 479.724 320.276 479.5 320 479.5C319.724 479.5 319.5 479.724 319.5 480C319.5 480.276 319.724 480.5 320 480.5Z" fill="#CACAD4"/>
<path d="M373.333 480.5C373.61 480.5 373.833 480.276 373.833 480C373.833 479.724 373.61 479.5 373.333 479.5C373.057 479.5 372.833 479.724 372.833 480C372.833 480.276 373.057 480.5 373.333 480.5Z" fill="#CACAD4"/>
<path d="M426.667 480.5C426.943 480.5 427.167 480.276 427.167 480C427.167 479.724 426.943 479.5 426.667 479.5C426.39 479.5 426.167 479.724 426.167 480C426.167 480.276 426.39 480.5 426.667 480.5Z" fill="#CACAD4"/>
<path d="M480 480.5C480.276 480.5 480.5 480.276 480.5 480C480.5 479.724 480.276 479.5 480 479.5C479.724 479.5 479.5 479.724 479.5 480C479.5 480.276 479.724 480.5 480 480.5Z" fill="#CACAD4"/>
</g>
</g>
<defs>
<clipPath id="clip0_1184_260">
<rect width="525" height="527" fill="white"/>
</clipPath>
</defs>
</svg>
