<svg width="21" height="20" viewBox="0 0 21 20" fill="none" xmlns="http://www.w3.org/2000/svg">
<path d="M8.00001 1.75001C6.51938 1.75001 2.63696 4.94624 2.2639 6.62501C2.01557 7.74251 1.25001 8.7614 1.25001 10C1.25001 11.0112 0.875949 12.9767 1.37501 13.875C2.41737 15.7513 4.18204 18.3712 6.50001 18.5C7.82698 18.5737 9.12473 19 10.5 19C11.9319 19 13.375 19.055 14.8056 19C15.9704 18.9552 17.2961 17.8151 18.0556 17.0556C19.1673 15.9438 19.5 14.9475 19.5 13.3611C19.5 12.0349 19.6562 10.7013 19.0556 9.50001C18.4487 8.28625 17.646 7.26933 17 6.1389C16.4706 5.21244 15.7535 4.51998 15.25 3.6389C14.5978 2.49759 13.8221 2.42096 12.75 1.94446C11.7581 1.50363 5.00001 0.344797 5.00001 2.00001" stroke="white" stroke-opacity="0.5" stroke-linecap="round"/>
<path d="M7.5 2C8.7355 2.15444 10.2471 4.52484 11.1111 5.38889C11.643 5.92078 11.6063 7.08503 12.125 7.5C12.5115 7.8092 13 9.17569 13 9.625C13 10.0947 13.4857 11.2804 13.6944 11.75C13.9808 12.3943 14 13.7883 14 14.5C14 15.4113 14.0535 16.3405 14 17.25C13.9602 17.9271 13.5 18.7996 13.5 19.5" stroke="white" stroke-opacity="0.5" stroke-linecap="round"/>
<path d="M1.5 9.75C2.79562 9.75 4.14158 10 5.5 10C6.86651 10 8.04664 9 9.375 9C10.2115 9 11.87 8.29443 12.625 7.875C13.1291 7.59493 13.6957 7.30189 14.25 7.05556C14.8371 6.79462 14.995 6.25249 15.5 6" stroke="white" stroke-opacity="0.5" stroke-linecap="round"/>
<path d="M6.5 18.25C6.5 15.2373 9.86983 14.6542 11.5556 13.3056C11.925 13.01 12.7774 13.0263 13.25 13C13.9217 12.9627 14.559 12.5 15.25 12.5C16.5812 12.5 17.6271 12.4386 18.75 13" stroke="white" stroke-opacity="0.5" stroke-linecap="round"/>
</svg>
