<svg width="23" height="25" viewBox="0 0 23 25" fill="none" xmlns="http://www.w3.org/2000/svg">
<path d="M11.5 0.156006C5.15839 0.156006 0 5.53867 0 12.156C0 18.7733 5.15839 24.156 11.5 24.156C17.8416 24.156 23 18.7733 23 12.156C23 5.53867 17.8416 0.156006 11.5 0.156006ZM11.5 2.15601C13.9291 2.15601 16.1307 3.10934 17.8186 4.65601C17.6397 4.91734 17.3969 5.23467 17.0098 5.62534C16.1907 6.45201 14.8797 7.44934 12.8774 8.21867C11.8256 6.19364 10.6346 4.25077 9.31372 2.40534C10.0311 2.23652 10.7646 2.15287 11.5 2.15601V2.15601ZM7.42644 3.09334C8.21356 4.16801 9.61272 6.16001 11.0208 8.81334C7.12361 9.89067 3.54839 10.0267 2.1275 10.0307C2.43827 8.52625 3.07829 7.11723 3.99754 5.91376C4.91679 4.71029 6.09034 3.74499 7.42644 3.09334V3.09334ZM19.1373 6.12534C20.35 7.79181 21.0307 9.81356 21.0833 11.9053C20.2298 11.7067 18.9724 11.512 17.3394 11.5C16.3886 11.502 15.4387 11.5643 14.4951 11.6867C14.2549 11.1173 13.9968 10.5667 13.7463 10.0307C15.8956 9.17201 17.3586 8.03867 18.3284 7.06267C18.6581 6.72667 18.9162 6.41734 19.1373 6.12534V6.12534ZM11.8897 10.6253C12.1095 11.0893 12.3344 11.5667 12.5478 12.0627C8.4525 13.2453 5.50978 16.8707 4.25244 18.6867C2.74561 16.8743 1.91622 14.5554 1.91667 12.156V12.0307C3.21233 12.0467 7.32933 11.9533 11.8897 10.6253V10.6253ZM17.3394 13.468C19.0517 13.468 20.2336 13.7187 20.9338 13.9067C20.719 15.1966 20.2619 16.4294 19.5886 17.5342C18.9154 18.639 18.0394 19.5939 17.0111 20.344C16.6348 18.0389 16.043 15.7779 15.2439 13.5933C15.9401 13.5165 16.6394 13.4747 17.3394 13.468V13.468ZM13.2966 13.9373C14.1578 16.2173 14.881 18.7227 15.2439 21.3747C14.0583 21.8929 12.7854 22.1586 11.5 22.156C9.38866 22.1601 7.33541 21.4348 5.66056 20.0933C6.64444 18.6867 9.53861 14.9453 13.2966 13.9373V13.9373Z" fill="white"/>
</svg>
