<svg width="16" height="25" viewBox="0 0 16 25" fill="none" xmlns="http://www.w3.org/2000/svg">
<path fill-rule="evenodd" clip-rule="evenodd" d="M12.2902 2.89855C12.2902 2.93736 12.2894 2.97598 12.2879 3.01442H12.2902V21.6811V21.797H12.2879C12.2271 23.3441 10.9537 24.5796 9.39166 24.5796C7.82966 24.5796 6.55624 23.3441 6.49538 21.797H6.49311V21.6811V3.01442H6.49538C6.49387 2.97598 6.49311 2.93736 6.49311 2.89855C6.49311 1.29773 7.79083 0 9.39166 0C10.9925 0 12.2902 1.29773 12.2902 2.89855ZM15.151 3.63151C14.6075 3.08792 13.8702 2.78254 13.1014 2.78254V5.68109L13.1015 8.57964C13.8702 8.57964 14.6075 8.27426 15.151 7.73068C15.6946 7.18709 16 6.44984 16 5.68109C16 4.91235 15.6946 4.17509 15.151 3.63151ZM5.79482 15.0725C5.79633 15.034 5.7971 14.9953 5.7971 14.9565C5.7971 13.3556 4.49937 12.0579 2.89855 12.0579C1.29773 12.0579 0 13.3556 0 14.9565C0 14.9953 0.000765244 15.034 0.00228149 15.0725H0V18.5508H0.0206478C0.00701434 18.6648 0 18.7809 0 18.8986C0 20.4994 1.29773 21.7971 2.89855 21.7971C4.49937 21.7971 5.7971 20.4994 5.7971 18.8986C5.7971 18.7809 5.79009 18.6648 5.77645 18.5508H5.7971V15.0725H5.79482Z" fill="url(#paint0_linear_1071_20)"/>
<defs>
<linearGradient id="paint0_linear_1071_20" x1="13.6" y1="-0.533333" x2="0.799996" y2="24.5333" gradientUnits="userSpaceOnUse">
<stop stop-color="white"/>
<stop offset="1" stop-color="white"/>
</linearGradient>
</defs>
</svg>
