<svg width="477" height="225" viewBox="0 0 477 225" fill="none" xmlns="http://www.w3.org/2000/svg">
<g clip-path="url(#clip0_1157_4715)">
<path d="M-1.2219e-06 0.140625C0.164649 0.140625 0.298124 0.077665 0.298124 0C0.298124 -0.077665 0.164649 -0.140625 -1.2219e-06 -0.140625C-0.164651 -0.140625 -0.298126 -0.077665 -0.298126 0C-0.298126 0.077665 -0.164651 0.140625 -1.2219e-06 0.140625Z" fill="#CACAD4"/>
<path d="M31.8 0.140625C31.9647 0.140625 32.0981 0.077665 32.0981 0C32.0981 -0.077665 31.9647 -0.140625 31.8 -0.140625C31.6354 -0.140625 31.5019 -0.077665 31.5019 0C31.5019 0.077665 31.6354 0.140625 31.8 0.140625Z" fill="#CACAD4"/>
<path d="M63.6 0.140625C63.7647 0.140625 63.8981 0.077665 63.8981 0C63.8981 -0.077665 63.7647 -0.140625 63.6 -0.140625C63.4354 -0.140625 63.3019 -0.077665 63.3019 0C63.3019 0.077665 63.4354 0.140625 63.6 0.140625Z" fill="#CACAD4"/>
<path d="M95.4 0.140625C95.5646 0.140625 95.6981 0.077665 95.6981 0C95.6981 -0.077665 95.5646 -0.140625 95.4 -0.140625C95.2353 -0.140625 95.1019 -0.077665 95.1019 0C95.1019 0.077665 95.2353 0.140625 95.4 0.140625Z" fill="#CACAD4"/>
<path d="M127.2 0.140625C127.365 0.140625 127.498 0.077665 127.498 0C127.498 -0.077665 127.365 -0.140625 127.2 -0.140625C127.035 -0.140625 126.902 -0.077665 126.902 0C126.902 0.077665 127.035 0.140625 127.2 0.140625Z" fill="#CACAD4"/>
<path d="M159 0.140625C159.165 0.140625 159.298 0.077665 159.298 0C159.298 -0.077665 159.165 -0.140625 159 -0.140625C158.835 -0.140625 158.702 -0.077665 158.702 0C158.702 0.077665 158.835 0.140625 159 0.140625Z" fill="#CACAD4"/>
<path d="M190.8 0.140625C190.965 0.140625 191.098 0.077665 191.098 0C191.098 -0.077665 190.965 -0.140625 190.8 -0.140625C190.635 -0.140625 190.502 -0.077665 190.502 0C190.502 0.077665 190.635 0.140625 190.8 0.140625Z" fill="#CACAD4"/>
<path d="M222.6 0.140625C222.765 0.140625 222.898 0.077665 222.898 0C222.898 -0.077665 222.765 -0.140625 222.6 -0.140625C222.435 -0.140625 222.302 -0.077665 222.302 0C222.302 0.077665 222.435 0.140625 222.6 0.140625Z" fill="#CACAD4"/>
<path d="M254.4 0.140625C254.565 0.140625 254.698 0.077665 254.698 0C254.698 -0.077665 254.565 -0.140625 254.4 -0.140625C254.235 -0.140625 254.102 -0.077665 254.102 0C254.102 0.077665 254.235 0.140625 254.4 0.140625Z" fill="#CACAD4"/>
<path d="M286.2 0.140625C286.365 0.140625 286.498 0.077665 286.498 0C286.498 -0.077665 286.365 -0.140625 286.2 -0.140625C286.035 -0.140625 285.902 -0.077665 285.902 0C285.902 0.077665 286.035 0.140625 286.2 0.140625Z" fill="#CACAD4"/>
<path d="M318 0.140625C318.165 0.140625 318.298 0.077665 318.298 0C318.298 -0.077665 318.165 -0.140625 318 -0.140625C317.835 -0.140625 317.702 -0.077665 317.702 0C317.702 0.077665 317.835 0.140625 318 0.140625Z" fill="#CACAD4"/>
<path d="M349.8 0.140625C349.965 0.140625 350.098 0.077665 350.098 0C350.098 -0.077665 349.965 -0.140625 349.8 -0.140625C349.635 -0.140625 349.502 -0.077665 349.502 0C349.502 0.077665 349.635 0.140625 349.8 0.140625Z" fill="#CACAD4"/>
<path d="M381.6 0.140625C381.765 0.140625 381.898 0.077665 381.898 0C381.898 -0.077665 381.765 -0.140625 381.6 -0.140625C381.435 -0.140625 381.302 -0.077665 381.302 0C381.302 0.077665 381.435 0.140625 381.6 0.140625Z" fill="#CACAD4"/>
<path d="M413.4 0.140625C413.565 0.140625 413.698 0.077665 413.698 0C413.698 -0.077665 413.565 -0.140625 413.4 -0.140625C413.235 -0.140625 413.102 -0.077665 413.102 0C413.102 0.077665 413.235 0.140625 413.4 0.140625Z" fill="#CACAD4"/>
<path d="M445.2 0.140625C445.365 0.140625 445.498 0.077665 445.498 0C445.498 -0.077665 445.365 -0.140625 445.2 -0.140625C445.035 -0.140625 444.902 -0.077665 444.902 0C444.902 0.077665 445.035 0.140625 445.2 0.140625Z" fill="#CACAD4"/>
<path d="M477 0.140625C477.165 0.140625 477.298 0.077665 477.298 0C477.298 -0.077665 477.165 -0.140625 477 -0.140625C476.835 -0.140625 476.702 -0.077665 476.702 0C476.702 0.077665 476.835 0.140625 477 0.140625Z" fill="#CACAD4"/>
<path d="M-1.2219e-06 18.8906C0.164649 18.8906 0.298124 18.8277 0.298124 18.75C0.298124 18.6723 0.164649 18.6094 -1.2219e-06 18.6094C-0.164651 18.6094 -0.298126 18.6723 -0.298126 18.75C-0.298126 18.8277 -0.164651 18.8906 -1.2219e-06 18.8906Z" fill="#CACAD4"/>
<path d="M31.8 18.8906C31.9647 18.8906 32.0981 18.8277 32.0981 18.75C32.0981 18.6723 31.9647 18.6094 31.8 18.6094C31.6354 18.6094 31.5019 18.6723 31.5019 18.75C31.5019 18.8277 31.6354 18.8906 31.8 18.8906Z" fill="#CACAD4"/>
<path d="M63.6 18.8906C63.7647 18.8906 63.8981 18.8277 63.8981 18.75C63.8981 18.6723 63.7647 18.6094 63.6 18.6094C63.4354 18.6094 63.3019 18.6723 63.3019 18.75C63.3019 18.8277 63.4354 18.8906 63.6 18.8906Z" fill="#CACAD4"/>
<path d="M95.4 18.8906C95.5646 18.8906 95.6981 18.8277 95.6981 18.75C95.6981 18.6723 95.5646 18.6094 95.4 18.6094C95.2353 18.6094 95.1019 18.6723 95.1019 18.75C95.1019 18.8277 95.2353 18.8906 95.4 18.8906Z" fill="#CACAD4"/>
<path d="M127.2 18.8906C127.365 18.8906 127.498 18.8277 127.498 18.75C127.498 18.6723 127.365 18.6094 127.2 18.6094C127.035 18.6094 126.902 18.6723 126.902 18.75C126.902 18.8277 127.035 18.8906 127.2 18.8906Z" fill="#CACAD4"/>
<path d="M159 18.8906C159.165 18.8906 159.298 18.8277 159.298 18.75C159.298 18.6723 159.165 18.6094 159 18.6094C158.835 18.6094 158.702 18.6723 158.702 18.75C158.702 18.8277 158.835 18.8906 159 18.8906Z" fill="#CACAD4"/>
<path d="M190.8 18.8906C190.965 18.8906 191.098 18.8277 191.098 18.75C191.098 18.6723 190.965 18.6094 190.8 18.6094C190.635 18.6094 190.502 18.6723 190.502 18.75C190.502 18.8277 190.635 18.8906 190.8 18.8906Z" fill="#CACAD4"/>
<path d="M222.6 18.8906C222.765 18.8906 222.898 18.8277 222.898 18.75C222.898 18.6723 222.765 18.6094 222.6 18.6094C222.435 18.6094 222.302 18.6723 222.302 18.75C222.302 18.8277 222.435 18.8906 222.6 18.8906Z" fill="#CACAD4"/>
<path d="M254.4 18.8906C254.565 18.8906 254.698 18.8277 254.698 18.75C254.698 18.6723 254.565 18.6094 254.4 18.6094C254.235 18.6094 254.102 18.6723 254.102 18.75C254.102 18.8277 254.235 18.8906 254.4 18.8906Z" fill="#CACAD4"/>
<path d="M286.2 18.8906C286.365 18.8906 286.498 18.8277 286.498 18.75C286.498 18.6723 286.365 18.6094 286.2 18.6094C286.035 18.6094 285.902 18.6723 285.902 18.75C285.902 18.8277 286.035 18.8906 286.2 18.8906Z" fill="#CACAD4"/>
<path d="M318 18.8906C318.165 18.8906 318.298 18.8277 318.298 18.75C318.298 18.6723 318.165 18.6094 318 18.6094C317.835 18.6094 317.702 18.6723 317.702 18.75C317.702 18.8277 317.835 18.8906 318 18.8906Z" fill="#CACAD4"/>
<path d="M349.8 18.8906C349.965 18.8906 350.098 18.8277 350.098 18.75C350.098 18.6723 349.965 18.6094 349.8 18.6094C349.635 18.6094 349.502 18.6723 349.502 18.75C349.502 18.8277 349.635 18.8906 349.8 18.8906Z" fill="#CACAD4"/>
<path d="M381.6 18.8906C381.765 18.8906 381.898 18.8277 381.898 18.75C381.898 18.6723 381.765 18.6094 381.6 18.6094C381.435 18.6094 381.302 18.6723 381.302 18.75C381.302 18.8277 381.435 18.8906 381.6 18.8906Z" fill="#CACAD4"/>
<path d="M413.4 18.8906C413.565 18.8906 413.698 18.8277 413.698 18.75C413.698 18.6723 413.565 18.6094 413.4 18.6094C413.235 18.6094 413.102 18.6723 413.102 18.75C413.102 18.8277 413.235 18.8906 413.4 18.8906Z" fill="#CACAD4"/>
<path d="M445.2 18.8906C445.365 18.8906 445.498 18.8277 445.498 18.75C445.498 18.6723 445.365 18.6094 445.2 18.6094C445.035 18.6094 444.902 18.6723 444.902 18.75C444.902 18.8277 445.035 18.8906 445.2 18.8906Z" fill="#CACAD4"/>
<path d="M477 18.8906C477.165 18.8906 477.298 18.8277 477.298 18.75C477.298 18.6723 477.165 18.6094 477 18.6094C476.835 18.6094 476.702 18.6723 476.702 18.75C476.702 18.8277 476.835 18.8906 477 18.8906Z" fill="#CACAD4"/>
<path d="M-1.2219e-06 37.6406C0.164649 37.6406 0.298124 37.5777 0.298124 37.5C0.298124 37.4223 0.164649 37.3594 -1.2219e-06 37.3594C-0.164651 37.3594 -0.298126 37.4223 -0.298126 37.5C-0.298126 37.5777 -0.164651 37.6406 -1.2219e-06 37.6406Z" fill="#CACAD4"/>
<path d="M31.8 37.6406C31.9647 37.6406 32.0981 37.5777 32.0981 37.5C32.0981 37.4223 31.9647 37.3594 31.8 37.3594C31.6354 37.3594 31.5019 37.4223 31.5019 37.5C31.5019 37.5777 31.6354 37.6406 31.8 37.6406Z" fill="#CACAD4"/>
<path d="M63.6 37.6406C63.7647 37.6406 63.8981 37.5777 63.8981 37.5C63.8981 37.4223 63.7647 37.3594 63.6 37.3594C63.4354 37.3594 63.3019 37.4223 63.3019 37.5C63.3019 37.5777 63.4354 37.6406 63.6 37.6406Z" fill="#CACAD4"/>
<path d="M95.4 37.6406C95.5646 37.6406 95.6981 37.5777 95.6981 37.5C95.6981 37.4223 95.5646 37.3594 95.4 37.3594C95.2353 37.3594 95.1019 37.4223 95.1019 37.5C95.1019 37.5777 95.2353 37.6406 95.4 37.6406Z" fill="#CACAD4"/>
<path d="M127.2 37.6406C127.365 37.6406 127.498 37.5777 127.498 37.5C127.498 37.4223 127.365 37.3594 127.2 37.3594C127.035 37.3594 126.902 37.4223 126.902 37.5C126.902 37.5777 127.035 37.6406 127.2 37.6406Z" fill="#CACAD4"/>
<path d="M159 37.6406C159.165 37.6406 159.298 37.5777 159.298 37.5C159.298 37.4223 159.165 37.3594 159 37.3594C158.835 37.3594 158.702 37.4223 158.702 37.5C158.702 37.5777 158.835 37.6406 159 37.6406Z" fill="#CACAD4"/>
<path d="M190.8 37.6406C190.965 37.6406 191.098 37.5777 191.098 37.5C191.098 37.4223 190.965 37.3594 190.8 37.3594C190.635 37.3594 190.502 37.4223 190.502 37.5C190.502 37.5777 190.635 37.6406 190.8 37.6406Z" fill="#CACAD4"/>
<path d="M222.6 37.6406C222.765 37.6406 222.898 37.5777 222.898 37.5C222.898 37.4223 222.765 37.3594 222.6 37.3594C222.435 37.3594 222.302 37.4223 222.302 37.5C222.302 37.5777 222.435 37.6406 222.6 37.6406Z" fill="#CACAD4"/>
<path d="M254.4 37.6406C254.565 37.6406 254.698 37.5777 254.698 37.5C254.698 37.4223 254.565 37.3594 254.4 37.3594C254.235 37.3594 254.102 37.4223 254.102 37.5C254.102 37.5777 254.235 37.6406 254.4 37.6406Z" fill="#CACAD4"/>
<path d="M286.2 37.6406C286.365 37.6406 286.498 37.5777 286.498 37.5C286.498 37.4223 286.365 37.3594 286.2 37.3594C286.035 37.3594 285.902 37.4223 285.902 37.5C285.902 37.5777 286.035 37.6406 286.2 37.6406Z" fill="#CACAD4"/>
<path d="M318 37.6406C318.165 37.6406 318.298 37.5777 318.298 37.5C318.298 37.4223 318.165 37.3594 318 37.3594C317.835 37.3594 317.702 37.4223 317.702 37.5C317.702 37.5777 317.835 37.6406 318 37.6406Z" fill="#CACAD4"/>
<path d="M349.8 37.6406C349.965 37.6406 350.098 37.5777 350.098 37.5C350.098 37.4223 349.965 37.3594 349.8 37.3594C349.635 37.3594 349.502 37.4223 349.502 37.5C349.502 37.5777 349.635 37.6406 349.8 37.6406Z" fill="#CACAD4"/>
<path d="M381.6 37.6406C381.765 37.6406 381.898 37.5777 381.898 37.5C381.898 37.4223 381.765 37.3594 381.6 37.3594C381.435 37.3594 381.302 37.4223 381.302 37.5C381.302 37.5777 381.435 37.6406 381.6 37.6406Z" fill="#CACAD4"/>
<path d="M413.4 37.6406C413.565 37.6406 413.698 37.5777 413.698 37.5C413.698 37.4223 413.565 37.3594 413.4 37.3594C413.235 37.3594 413.102 37.4223 413.102 37.5C413.102 37.5777 413.235 37.6406 413.4 37.6406Z" fill="#CACAD4"/>
<path d="M445.2 37.6406C445.365 37.6406 445.498 37.5777 445.498 37.5C445.498 37.4223 445.365 37.3594 445.2 37.3594C445.035 37.3594 444.902 37.4223 444.902 37.5C444.902 37.5777 445.035 37.6406 445.2 37.6406Z" fill="#CACAD4"/>
<path d="M477 37.6406C477.165 37.6406 477.298 37.5777 477.298 37.5C477.298 37.4223 477.165 37.3594 477 37.3594C476.835 37.3594 476.702 37.4223 476.702 37.5C476.702 37.5777 476.835 37.6406 477 37.6406Z" fill="#CACAD4"/>
<path d="M-1.2219e-06 56.3906C0.164649 56.3906 0.298124 56.3277 0.298124 56.25C0.298124 56.1723 0.164649 56.1094 -1.2219e-06 56.1094C-0.164651 56.1094 -0.298126 56.1723 -0.298126 56.25C-0.298126 56.3277 -0.164651 56.3906 -1.2219e-06 56.3906Z" fill="#CACAD4"/>
<path d="M31.8 56.3906C31.9647 56.3906 32.0981 56.3277 32.0981 56.25C32.0981 56.1723 31.9647 56.1094 31.8 56.1094C31.6354 56.1094 31.5019 56.1723 31.5019 56.25C31.5019 56.3277 31.6354 56.3906 31.8 56.3906Z" fill="#CACAD4"/>
<path d="M63.6 56.3906C63.7647 56.3906 63.8981 56.3277 63.8981 56.25C63.8981 56.1723 63.7647 56.1094 63.6 56.1094C63.4354 56.1094 63.3019 56.1723 63.3019 56.25C63.3019 56.3277 63.4354 56.3906 63.6 56.3906Z" fill="#CACAD4"/>
<path d="M95.4 56.3906C95.5646 56.3906 95.6981 56.3277 95.6981 56.25C95.6981 56.1723 95.5646 56.1094 95.4 56.1094C95.2353 56.1094 95.1019 56.1723 95.1019 56.25C95.1019 56.3277 95.2353 56.3906 95.4 56.3906Z" fill="#CACAD4"/>
<path d="M127.2 56.3906C127.365 56.3906 127.498 56.3277 127.498 56.25C127.498 56.1723 127.365 56.1094 127.2 56.1094C127.035 56.1094 126.902 56.1723 126.902 56.25C126.902 56.3277 127.035 56.3906 127.2 56.3906Z" fill="#CACAD4"/>
<path d="M159 56.3906C159.165 56.3906 159.298 56.3277 159.298 56.25C159.298 56.1723 159.165 56.1094 159 56.1094C158.835 56.1094 158.702 56.1723 158.702 56.25C158.702 56.3277 158.835 56.3906 159 56.3906Z" fill="#CACAD4"/>
<path d="M190.8 56.3906C190.965 56.3906 191.098 56.3277 191.098 56.25C191.098 56.1723 190.965 56.1094 190.8 56.1094C190.635 56.1094 190.502 56.1723 190.502 56.25C190.502 56.3277 190.635 56.3906 190.8 56.3906Z" fill="#CACAD4"/>
<path d="M222.6 56.3906C222.765 56.3906 222.898 56.3277 222.898 56.25C222.898 56.1723 222.765 56.1094 222.6 56.1094C222.435 56.1094 222.302 56.1723 222.302 56.25C222.302 56.3277 222.435 56.3906 222.6 56.3906Z" fill="#CACAD4"/>
<path d="M254.4 56.3906C254.565 56.3906 254.698 56.3277 254.698 56.25C254.698 56.1723 254.565 56.1094 254.4 56.1094C254.235 56.1094 254.102 56.1723 254.102 56.25C254.102 56.3277 254.235 56.3906 254.4 56.3906Z" fill="#CACAD4"/>
<path d="M286.2 56.3906C286.365 56.3906 286.498 56.3277 286.498 56.25C286.498 56.1723 286.365 56.1094 286.2 56.1094C286.035 56.1094 285.902 56.1723 285.902 56.25C285.902 56.3277 286.035 56.3906 286.2 56.3906Z" fill="#CACAD4"/>
<path d="M318 56.3906C318.165 56.3906 318.298 56.3277 318.298 56.25C318.298 56.1723 318.165 56.1094 318 56.1094C317.835 56.1094 317.702 56.1723 317.702 56.25C317.702 56.3277 317.835 56.3906 318 56.3906Z" fill="#CACAD4"/>
<path d="M349.8 56.3906C349.965 56.3906 350.098 56.3277 350.098 56.25C350.098 56.1723 349.965 56.1094 349.8 56.1094C349.635 56.1094 349.502 56.1723 349.502 56.25C349.502 56.3277 349.635 56.3906 349.8 56.3906Z" fill="#CACAD4"/>
<path d="M381.6 56.3906C381.765 56.3906 381.898 56.3277 381.898 56.25C381.898 56.1723 381.765 56.1094 381.6 56.1094C381.435 56.1094 381.302 56.1723 381.302 56.25C381.302 56.3277 381.435 56.3906 381.6 56.3906Z" fill="#CACAD4"/>
<path d="M413.4 56.3906C413.565 56.3906 413.698 56.3277 413.698 56.25C413.698 56.1723 413.565 56.1094 413.4 56.1094C413.235 56.1094 413.102 56.1723 413.102 56.25C413.102 56.3277 413.235 56.3906 413.4 56.3906Z" fill="#CACAD4"/>
<path d="M445.2 56.3906C445.365 56.3906 445.498 56.3277 445.498 56.25C445.498 56.1723 445.365 56.1094 445.2 56.1094C445.035 56.1094 444.902 56.1723 444.902 56.25C444.902 56.3277 445.035 56.3906 445.2 56.3906Z" fill="#CACAD4"/>
<path d="M477 56.3906C477.165 56.3906 477.298 56.3277 477.298 56.25C477.298 56.1723 477.165 56.1094 477 56.1094C476.835 56.1094 476.702 56.1723 476.702 56.25C476.702 56.3277 476.835 56.3906 477 56.3906Z" fill="#CACAD4"/>
<path d="M-1.2219e-06 75.1406C0.164649 75.1406 0.298124 75.0777 0.298124 75C0.298124 74.9223 0.164649 74.8594 -1.2219e-06 74.8594C-0.164651 74.8594 -0.298126 74.9223 -0.298126 75C-0.298126 75.0777 -0.164651 75.1406 -1.2219e-06 75.1406Z" fill="#CACAD4"/>
<path d="M31.8 75.1406C31.9647 75.1406 32.0981 75.0777 32.0981 75C32.0981 74.9223 31.9647 74.8594 31.8 74.8594C31.6354 74.8594 31.5019 74.9223 31.5019 75C31.5019 75.0777 31.6354 75.1406 31.8 75.1406Z" fill="#CACAD4"/>
<path d="M63.6 75.1406C63.7647 75.1406 63.8981 75.0777 63.8981 75C63.8981 74.9223 63.7647 74.8594 63.6 74.8594C63.4354 74.8594 63.3019 74.9223 63.3019 75C63.3019 75.0777 63.4354 75.1406 63.6 75.1406Z" fill="#CACAD4"/>
<path d="M95.4 75.1406C95.5646 75.1406 95.6981 75.0777 95.6981 75C95.6981 74.9223 95.5646 74.8594 95.4 74.8594C95.2353 74.8594 95.1019 74.9223 95.1019 75C95.1019 75.0777 95.2353 75.1406 95.4 75.1406Z" fill="#CACAD4"/>
<path d="M127.2 75.1406C127.365 75.1406 127.498 75.0777 127.498 75C127.498 74.9223 127.365 74.8594 127.2 74.8594C127.035 74.8594 126.902 74.9223 126.902 75C126.902 75.0777 127.035 75.1406 127.2 75.1406Z" fill="#CACAD4"/>
<path d="M159 75.1406C159.165 75.1406 159.298 75.0777 159.298 75C159.298 74.9223 159.165 74.8594 159 74.8594C158.835 74.8594 158.702 74.9223 158.702 75C158.702 75.0777 158.835 75.1406 159 75.1406Z" fill="#CACAD4"/>
<path d="M190.8 75.1406C190.965 75.1406 191.098 75.0777 191.098 75C191.098 74.9223 190.965 74.8594 190.8 74.8594C190.635 74.8594 190.502 74.9223 190.502 75C190.502 75.0777 190.635 75.1406 190.8 75.1406Z" fill="#CACAD4"/>
<path d="M222.6 75.1406C222.765 75.1406 222.898 75.0777 222.898 75C222.898 74.9223 222.765 74.8594 222.6 74.8594C222.435 74.8594 222.302 74.9223 222.302 75C222.302 75.0777 222.435 75.1406 222.6 75.1406Z" fill="#CACAD4"/>
<path d="M254.4 75.1406C254.565 75.1406 254.698 75.0777 254.698 75C254.698 74.9223 254.565 74.8594 254.4 74.8594C254.235 74.8594 254.102 74.9223 254.102 75C254.102 75.0777 254.235 75.1406 254.4 75.1406Z" fill="#CACAD4"/>
<path d="M286.2 75.1406C286.365 75.1406 286.498 75.0777 286.498 75C286.498 74.9223 286.365 74.8594 286.2 74.8594C286.035 74.8594 285.902 74.9223 285.902 75C285.902 75.0777 286.035 75.1406 286.2 75.1406Z" fill="#CACAD4"/>
<path d="M318 75.1406C318.165 75.1406 318.298 75.0777 318.298 75C318.298 74.9223 318.165 74.8594 318 74.8594C317.835 74.8594 317.702 74.9223 317.702 75C317.702 75.0777 317.835 75.1406 318 75.1406Z" fill="#CACAD4"/>
<path d="M349.8 75.1406C349.965 75.1406 350.098 75.0777 350.098 75C350.098 74.9223 349.965 74.8594 349.8 74.8594C349.635 74.8594 349.502 74.9223 349.502 75C349.502 75.0777 349.635 75.1406 349.8 75.1406Z" fill="#CACAD4"/>
<path d="M381.6 75.1406C381.765 75.1406 381.898 75.0777 381.898 75C381.898 74.9223 381.765 74.8594 381.6 74.8594C381.435 74.8594 381.302 74.9223 381.302 75C381.302 75.0777 381.435 75.1406 381.6 75.1406Z" fill="#CACAD4"/>
<path d="M413.4 75.1406C413.565 75.1406 413.698 75.0777 413.698 75C413.698 74.9223 413.565 74.8594 413.4 74.8594C413.235 74.8594 413.102 74.9223 413.102 75C413.102 75.0777 413.235 75.1406 413.4 75.1406Z" fill="#CACAD4"/>
<path d="M445.2 75.1406C445.365 75.1406 445.498 75.0777 445.498 75C445.498 74.9223 445.365 74.8594 445.2 74.8594C445.035 74.8594 444.902 74.9223 444.902 75C444.902 75.0777 445.035 75.1406 445.2 75.1406Z" fill="#CACAD4"/>
<path d="M477 75.1406C477.165 75.1406 477.298 75.0777 477.298 75C477.298 74.9223 477.165 74.8594 477 74.8594C476.835 74.8594 476.702 74.9223 476.702 75C476.702 75.0777 476.835 75.1406 477 75.1406Z" fill="#CACAD4"/>
<path d="M-1.2219e-06 93.8906C0.164649 93.8906 0.298124 93.8277 0.298124 93.75C0.298124 93.6723 0.164649 93.6094 -1.2219e-06 93.6094C-0.164651 93.6094 -0.298126 93.6723 -0.298126 93.75C-0.298126 93.8277 -0.164651 93.8906 -1.2219e-06 93.8906Z" fill="#CACAD4"/>
<path d="M31.8 93.8906C31.9647 93.8906 32.0981 93.8277 32.0981 93.75C32.0981 93.6723 31.9647 93.6094 31.8 93.6094C31.6354 93.6094 31.5019 93.6723 31.5019 93.75C31.5019 93.8277 31.6354 93.8906 31.8 93.8906Z" fill="#CACAD4"/>
<path d="M63.6 93.8906C63.7647 93.8906 63.8981 93.8277 63.8981 93.75C63.8981 93.6723 63.7647 93.6094 63.6 93.6094C63.4354 93.6094 63.3019 93.6723 63.3019 93.75C63.3019 93.8277 63.4354 93.8906 63.6 93.8906Z" fill="#CACAD4"/>
<path d="M95.4 93.8906C95.5646 93.8906 95.6981 93.8277 95.6981 93.75C95.6981 93.6723 95.5646 93.6094 95.4 93.6094C95.2353 93.6094 95.1019 93.6723 95.1019 93.75C95.1019 93.8277 95.2353 93.8906 95.4 93.8906Z" fill="#CACAD4"/>
<path d="M127.2 93.8906C127.365 93.8906 127.498 93.8277 127.498 93.75C127.498 93.6723 127.365 93.6094 127.2 93.6094C127.035 93.6094 126.902 93.6723 126.902 93.75C126.902 93.8277 127.035 93.8906 127.2 93.8906Z" fill="#CACAD4"/>
<path d="M159 93.8906C159.165 93.8906 159.298 93.8277 159.298 93.75C159.298 93.6723 159.165 93.6094 159 93.6094C158.835 93.6094 158.702 93.6723 158.702 93.75C158.702 93.8277 158.835 93.8906 159 93.8906Z" fill="#CACAD4"/>
<path d="M190.8 93.8906C190.965 93.8906 191.098 93.8277 191.098 93.75C191.098 93.6723 190.965 93.6094 190.8 93.6094C190.635 93.6094 190.502 93.6723 190.502 93.75C190.502 93.8277 190.635 93.8906 190.8 93.8906Z" fill="#CACAD4"/>
<path d="M222.6 93.8906C222.765 93.8906 222.898 93.8277 222.898 93.75C222.898 93.6723 222.765 93.6094 222.6 93.6094C222.435 93.6094 222.302 93.6723 222.302 93.75C222.302 93.8277 222.435 93.8906 222.6 93.8906Z" fill="#CACAD4"/>
<path d="M254.4 93.8906C254.565 93.8906 254.698 93.8277 254.698 93.75C254.698 93.6723 254.565 93.6094 254.4 93.6094C254.235 93.6094 254.102 93.6723 254.102 93.75C254.102 93.8277 254.235 93.8906 254.4 93.8906Z" fill="#CACAD4"/>
<path d="M286.2 93.8906C286.365 93.8906 286.498 93.8277 286.498 93.75C286.498 93.6723 286.365 93.6094 286.2 93.6094C286.035 93.6094 285.902 93.6723 285.902 93.75C285.902 93.8277 286.035 93.8906 286.2 93.8906Z" fill="#CACAD4"/>
<path d="M318 93.8906C318.165 93.8906 318.298 93.8277 318.298 93.75C318.298 93.6723 318.165 93.6094 318 93.6094C317.835 93.6094 317.702 93.6723 317.702 93.75C317.702 93.8277 317.835 93.8906 318 93.8906Z" fill="#CACAD4"/>
<path d="M349.8 93.8906C349.965 93.8906 350.098 93.8277 350.098 93.75C350.098 93.6723 349.965 93.6094 349.8 93.6094C349.635 93.6094 349.502 93.6723 349.502 93.75C349.502 93.8277 349.635 93.8906 349.8 93.8906Z" fill="#CACAD4"/>
<path d="M381.6 93.8906C381.765 93.8906 381.898 93.8277 381.898 93.75C381.898 93.6723 381.765 93.6094 381.6 93.6094C381.435 93.6094 381.302 93.6723 381.302 93.75C381.302 93.8277 381.435 93.8906 381.6 93.8906Z" fill="#CACAD4"/>
<path d="M413.4 93.8906C413.565 93.8906 413.698 93.8277 413.698 93.75C413.698 93.6723 413.565 93.6094 413.4 93.6094C413.235 93.6094 413.102 93.6723 413.102 93.75C413.102 93.8277 413.235 93.8906 413.4 93.8906Z" fill="#CACAD4"/>
<path d="M445.2 93.8906C445.365 93.8906 445.498 93.8277 445.498 93.75C445.498 93.6723 445.365 93.6094 445.2 93.6094C445.035 93.6094 444.902 93.6723 444.902 93.75C444.902 93.8277 445.035 93.8906 445.2 93.8906Z" fill="#CACAD4"/>
<path d="M477 93.8906C477.165 93.8906 477.298 93.8277 477.298 93.75C477.298 93.6723 477.165 93.6094 477 93.6094C476.835 93.6094 476.702 93.6723 476.702 93.75C476.702 93.8277 476.835 93.8906 477 93.8906Z" fill="#CACAD4"/>
<path d="M-1.2219e-06 112.641C0.164649 112.641 0.298124 112.578 0.298124 112.5C0.298124 112.422 0.164649 112.359 -1.2219e-06 112.359C-0.164651 112.359 -0.298126 112.422 -0.298126 112.5C-0.298126 112.578 -0.164651 112.641 -1.2219e-06 112.641Z" fill="#CACAD4"/>
<path d="M31.8 112.641C31.9647 112.641 32.0981 112.578 32.0981 112.5C32.0981 112.422 31.9647 112.359 31.8 112.359C31.6354 112.359 31.5019 112.422 31.5019 112.5C31.5019 112.578 31.6354 112.641 31.8 112.641Z" fill="#CACAD4"/>
<path d="M63.6 112.641C63.7647 112.641 63.8981 112.578 63.8981 112.5C63.8981 112.422 63.7647 112.359 63.6 112.359C63.4354 112.359 63.3019 112.422 63.3019 112.5C63.3019 112.578 63.4354 112.641 63.6 112.641Z" fill="#CACAD4"/>
<path d="M95.4 112.641C95.5646 112.641 95.6981 112.578 95.6981 112.5C95.6981 112.422 95.5646 112.359 95.4 112.359C95.2353 112.359 95.1019 112.422 95.1019 112.5C95.1019 112.578 95.2353 112.641 95.4 112.641Z" fill="#CACAD4"/>
<path d="M127.2 112.641C127.365 112.641 127.498 112.578 127.498 112.5C127.498 112.422 127.365 112.359 127.2 112.359C127.035 112.359 126.902 112.422 126.902 112.5C126.902 112.578 127.035 112.641 127.2 112.641Z" fill="#CACAD4"/>
<path d="M159 112.641C159.165 112.641 159.298 112.578 159.298 112.5C159.298 112.422 159.165 112.359 159 112.359C158.835 112.359 158.702 112.422 158.702 112.5C158.702 112.578 158.835 112.641 159 112.641Z" fill="#CACAD4"/>
<path d="M190.8 112.641C190.965 112.641 191.098 112.578 191.098 112.5C191.098 112.422 190.965 112.359 190.8 112.359C190.635 112.359 190.502 112.422 190.502 112.5C190.502 112.578 190.635 112.641 190.8 112.641Z" fill="#CACAD4"/>
<path d="M222.6 112.641C222.765 112.641 222.898 112.578 222.898 112.5C222.898 112.422 222.765 112.359 222.6 112.359C222.435 112.359 222.302 112.422 222.302 112.5C222.302 112.578 222.435 112.641 222.6 112.641Z" fill="#CACAD4"/>
<path d="M254.4 112.641C254.565 112.641 254.698 112.578 254.698 112.5C254.698 112.422 254.565 112.359 254.4 112.359C254.235 112.359 254.102 112.422 254.102 112.5C254.102 112.578 254.235 112.641 254.4 112.641Z" fill="#CACAD4"/>
<path d="M286.2 112.641C286.365 112.641 286.498 112.578 286.498 112.5C286.498 112.422 286.365 112.359 286.2 112.359C286.035 112.359 285.902 112.422 285.902 112.5C285.902 112.578 286.035 112.641 286.2 112.641Z" fill="#CACAD4"/>
<path d="M318 112.641C318.165 112.641 318.298 112.578 318.298 112.5C318.298 112.422 318.165 112.359 318 112.359C317.835 112.359 317.702 112.422 317.702 112.5C317.702 112.578 317.835 112.641 318 112.641Z" fill="#CACAD4"/>
<path d="M349.8 112.641C349.965 112.641 350.098 112.578 350.098 112.5C350.098 112.422 349.965 112.359 349.8 112.359C349.635 112.359 349.502 112.422 349.502 112.5C349.502 112.578 349.635 112.641 349.8 112.641Z" fill="#CACAD4"/>
<path d="M381.6 112.641C381.765 112.641 381.898 112.578 381.898 112.5C381.898 112.422 381.765 112.359 381.6 112.359C381.435 112.359 381.302 112.422 381.302 112.5C381.302 112.578 381.435 112.641 381.6 112.641Z" fill="#CACAD4"/>
<path d="M413.4 112.641C413.565 112.641 413.698 112.578 413.698 112.5C413.698 112.422 413.565 112.359 413.4 112.359C413.235 112.359 413.102 112.422 413.102 112.5C413.102 112.578 413.235 112.641 413.4 112.641Z" fill="#CACAD4"/>
<path d="M445.2 112.641C445.365 112.641 445.498 112.578 445.498 112.5C445.498 112.422 445.365 112.359 445.2 112.359C445.035 112.359 444.902 112.422 444.902 112.5C444.902 112.578 445.035 112.641 445.2 112.641Z" fill="#CACAD4"/>
<path d="M477 112.641C477.165 112.641 477.298 112.578 477.298 112.5C477.298 112.422 477.165 112.359 477 112.359C476.835 112.359 476.702 112.422 476.702 112.5C476.702 112.578 476.835 112.641 477 112.641Z" fill="#CACAD4"/>
<path d="M-1.2219e-06 131.391C0.164649 131.391 0.298124 131.328 0.298124 131.25C0.298124 131.172 0.164649 131.109 -1.2219e-06 131.109C-0.164651 131.109 -0.298126 131.172 -0.298126 131.25C-0.298126 131.328 -0.164651 131.391 -1.2219e-06 131.391Z" fill="#CACAD4"/>
<path d="M31.8 131.391C31.9647 131.391 32.0981 131.328 32.0981 131.25C32.0981 131.172 31.9647 131.109 31.8 131.109C31.6354 131.109 31.5019 131.172 31.5019 131.25C31.5019 131.328 31.6354 131.391 31.8 131.391Z" fill="#CACAD4"/>
<path d="M63.6 131.391C63.7647 131.391 63.8981 131.328 63.8981 131.25C63.8981 131.172 63.7647 131.109 63.6 131.109C63.4354 131.109 63.3019 131.172 63.3019 131.25C63.3019 131.328 63.4354 131.391 63.6 131.391Z" fill="#CACAD4"/>
<path d="M95.4 131.391C95.5646 131.391 95.6981 131.328 95.6981 131.25C95.6981 131.172 95.5646 131.109 95.4 131.109C95.2353 131.109 95.1019 131.172 95.1019 131.25C95.1019 131.328 95.2353 131.391 95.4 131.391Z" fill="#CACAD4"/>
<path d="M127.2 131.391C127.365 131.391 127.498 131.328 127.498 131.25C127.498 131.172 127.365 131.109 127.2 131.109C127.035 131.109 126.902 131.172 126.902 131.25C126.902 131.328 127.035 131.391 127.2 131.391Z" fill="#CACAD4"/>
<path d="M159 131.391C159.165 131.391 159.298 131.328 159.298 131.25C159.298 131.172 159.165 131.109 159 131.109C158.835 131.109 158.702 131.172 158.702 131.25C158.702 131.328 158.835 131.391 159 131.391Z" fill="#CACAD4"/>
<path d="M190.8 131.391C190.965 131.391 191.098 131.328 191.098 131.25C191.098 131.172 190.965 131.109 190.8 131.109C190.635 131.109 190.502 131.172 190.502 131.25C190.502 131.328 190.635 131.391 190.8 131.391Z" fill="#CACAD4"/>
<path d="M222.6 131.391C222.765 131.391 222.898 131.328 222.898 131.25C222.898 131.172 222.765 131.109 222.6 131.109C222.435 131.109 222.302 131.172 222.302 131.25C222.302 131.328 222.435 131.391 222.6 131.391Z" fill="#CACAD4"/>
<path d="M254.4 131.391C254.565 131.391 254.698 131.328 254.698 131.25C254.698 131.172 254.565 131.109 254.4 131.109C254.235 131.109 254.102 131.172 254.102 131.25C254.102 131.328 254.235 131.391 254.4 131.391Z" fill="#CACAD4"/>
<path d="M286.2 131.391C286.365 131.391 286.498 131.328 286.498 131.25C286.498 131.172 286.365 131.109 286.2 131.109C286.035 131.109 285.902 131.172 285.902 131.25C285.902 131.328 286.035 131.391 286.2 131.391Z" fill="#CACAD4"/>
<path d="M318 131.391C318.165 131.391 318.298 131.328 318.298 131.25C318.298 131.172 318.165 131.109 318 131.109C317.835 131.109 317.702 131.172 317.702 131.25C317.702 131.328 317.835 131.391 318 131.391Z" fill="#CACAD4"/>
<path d="M349.8 131.391C349.965 131.391 350.098 131.328 350.098 131.25C350.098 131.172 349.965 131.109 349.8 131.109C349.635 131.109 349.502 131.172 349.502 131.25C349.502 131.328 349.635 131.391 349.8 131.391Z" fill="#CACAD4"/>
<path d="M381.6 131.391C381.765 131.391 381.898 131.328 381.898 131.25C381.898 131.172 381.765 131.109 381.6 131.109C381.435 131.109 381.302 131.172 381.302 131.25C381.302 131.328 381.435 131.391 381.6 131.391Z" fill="#CACAD4"/>
<path d="M413.4 131.391C413.565 131.391 413.698 131.328 413.698 131.25C413.698 131.172 413.565 131.109 413.4 131.109C413.235 131.109 413.102 131.172 413.102 131.25C413.102 131.328 413.235 131.391 413.4 131.391Z" fill="#CACAD4"/>
<path d="M445.2 131.391C445.365 131.391 445.498 131.328 445.498 131.25C445.498 131.172 445.365 131.109 445.2 131.109C445.035 131.109 444.902 131.172 444.902 131.25C444.902 131.328 445.035 131.391 445.2 131.391Z" fill="#CACAD4"/>
<path d="M477 131.391C477.165 131.391 477.298 131.328 477.298 131.25C477.298 131.172 477.165 131.109 477 131.109C476.835 131.109 476.702 131.172 476.702 131.25C476.702 131.328 476.835 131.391 477 131.391Z" fill="#CACAD4"/>
<path d="M-1.2219e-06 150.141C0.164649 150.141 0.298124 150.078 0.298124 150C0.298124 149.922 0.164649 149.859 -1.2219e-06 149.859C-0.164651 149.859 -0.298126 149.922 -0.298126 150C-0.298126 150.078 -0.164651 150.141 -1.2219e-06 150.141Z" fill="#CACAD4"/>
<path d="M31.8 150.141C31.9647 150.141 32.0981 150.078 32.0981 150C32.0981 149.922 31.9647 149.859 31.8 149.859C31.6354 149.859 31.5019 149.922 31.5019 150C31.5019 150.078 31.6354 150.141 31.8 150.141Z" fill="#CACAD4"/>
<path d="M63.6 150.141C63.7647 150.141 63.8981 150.078 63.8981 150C63.8981 149.922 63.7647 149.859 63.6 149.859C63.4354 149.859 63.3019 149.922 63.3019 150C63.3019 150.078 63.4354 150.141 63.6 150.141Z" fill="#CACAD4"/>
<path d="M95.4 150.141C95.5646 150.141 95.6981 150.078 95.6981 150C95.6981 149.922 95.5646 149.859 95.4 149.859C95.2353 149.859 95.1019 149.922 95.1019 150C95.1019 150.078 95.2353 150.141 95.4 150.141Z" fill="#CACAD4"/>
<path d="M127.2 150.141C127.365 150.141 127.498 150.078 127.498 150C127.498 149.922 127.365 149.859 127.2 149.859C127.035 149.859 126.902 149.922 126.902 150C126.902 150.078 127.035 150.141 127.2 150.141Z" fill="#CACAD4"/>
<path d="M159 150.141C159.165 150.141 159.298 150.078 159.298 150C159.298 149.922 159.165 149.859 159 149.859C158.835 149.859 158.702 149.922 158.702 150C158.702 150.078 158.835 150.141 159 150.141Z" fill="#CACAD4"/>
<path d="M190.8 150.141C190.965 150.141 191.098 150.078 191.098 150C191.098 149.922 190.965 149.859 190.8 149.859C190.635 149.859 190.502 149.922 190.502 150C190.502 150.078 190.635 150.141 190.8 150.141Z" fill="#CACAD4"/>
<path d="M222.6 150.141C222.765 150.141 222.898 150.078 222.898 150C222.898 149.922 222.765 149.859 222.6 149.859C222.435 149.859 222.302 149.922 222.302 150C222.302 150.078 222.435 150.141 222.6 150.141Z" fill="#CACAD4"/>
<path d="M254.4 150.141C254.565 150.141 254.698 150.078 254.698 150C254.698 149.922 254.565 149.859 254.4 149.859C254.235 149.859 254.102 149.922 254.102 150C254.102 150.078 254.235 150.141 254.4 150.141Z" fill="#CACAD4"/>
<path d="M286.2 150.141C286.365 150.141 286.498 150.078 286.498 150C286.498 149.922 286.365 149.859 286.2 149.859C286.035 149.859 285.902 149.922 285.902 150C285.902 150.078 286.035 150.141 286.2 150.141Z" fill="#CACAD4"/>
<path d="M318 150.141C318.165 150.141 318.298 150.078 318.298 150C318.298 149.922 318.165 149.859 318 149.859C317.835 149.859 317.702 149.922 317.702 150C317.702 150.078 317.835 150.141 318 150.141Z" fill="#CACAD4"/>
<path d="M349.8 150.141C349.965 150.141 350.098 150.078 350.098 150C350.098 149.922 349.965 149.859 349.8 149.859C349.635 149.859 349.502 149.922 349.502 150C349.502 150.078 349.635 150.141 349.8 150.141Z" fill="#CACAD4"/>
<path d="M381.6 150.141C381.765 150.141 381.898 150.078 381.898 150C381.898 149.922 381.765 149.859 381.6 149.859C381.435 149.859 381.302 149.922 381.302 150C381.302 150.078 381.435 150.141 381.6 150.141Z" fill="#CACAD4"/>
<path d="M413.4 150.141C413.565 150.141 413.698 150.078 413.698 150C413.698 149.922 413.565 149.859 413.4 149.859C413.235 149.859 413.102 149.922 413.102 150C413.102 150.078 413.235 150.141 413.4 150.141Z" fill="#CACAD4"/>
<path d="M445.2 150.141C445.365 150.141 445.498 150.078 445.498 150C445.498 149.922 445.365 149.859 445.2 149.859C445.035 149.859 444.902 149.922 444.902 150C444.902 150.078 445.035 150.141 445.2 150.141Z" fill="#CACAD4"/>
<path d="M477 150.141C477.165 150.141 477.298 150.078 477.298 150C477.298 149.922 477.165 149.859 477 149.859C476.835 149.859 476.702 149.922 476.702 150C476.702 150.078 476.835 150.141 477 150.141Z" fill="#CACAD4"/>
<path d="M-1.2219e-06 168.891C0.164649 168.891 0.298124 168.828 0.298124 168.75C0.298124 168.672 0.164649 168.609 -1.2219e-06 168.609C-0.164651 168.609 -0.298126 168.672 -0.298126 168.75C-0.298126 168.828 -0.164651 168.891 -1.2219e-06 168.891Z" fill="#CACAD4"/>
<path d="M31.8 168.891C31.9647 168.891 32.0981 168.828 32.0981 168.75C32.0981 168.672 31.9647 168.609 31.8 168.609C31.6354 168.609 31.5019 168.672 31.5019 168.75C31.5019 168.828 31.6354 168.891 31.8 168.891Z" fill="#CACAD4"/>
<path d="M63.6 168.891C63.7647 168.891 63.8981 168.828 63.8981 168.75C63.8981 168.672 63.7647 168.609 63.6 168.609C63.4354 168.609 63.3019 168.672 63.3019 168.75C63.3019 168.828 63.4354 168.891 63.6 168.891Z" fill="#CACAD4"/>
<path d="M95.4 168.891C95.5646 168.891 95.6981 168.828 95.6981 168.75C95.6981 168.672 95.5646 168.609 95.4 168.609C95.2353 168.609 95.1019 168.672 95.1019 168.75C95.1019 168.828 95.2353 168.891 95.4 168.891Z" fill="#CACAD4"/>
<path d="M127.2 168.891C127.365 168.891 127.498 168.828 127.498 168.75C127.498 168.672 127.365 168.609 127.2 168.609C127.035 168.609 126.902 168.672 126.902 168.75C126.902 168.828 127.035 168.891 127.2 168.891Z" fill="#CACAD4"/>
<path d="M159 168.891C159.165 168.891 159.298 168.828 159.298 168.75C159.298 168.672 159.165 168.609 159 168.609C158.835 168.609 158.702 168.672 158.702 168.75C158.702 168.828 158.835 168.891 159 168.891Z" fill="#CACAD4"/>
<path d="M190.8 168.891C190.965 168.891 191.098 168.828 191.098 168.75C191.098 168.672 190.965 168.609 190.8 168.609C190.635 168.609 190.502 168.672 190.502 168.75C190.502 168.828 190.635 168.891 190.8 168.891Z" fill="#CACAD4"/>
<path d="M222.6 168.891C222.765 168.891 222.898 168.828 222.898 168.75C222.898 168.672 222.765 168.609 222.6 168.609C222.435 168.609 222.302 168.672 222.302 168.75C222.302 168.828 222.435 168.891 222.6 168.891Z" fill="#CACAD4"/>
<path d="M254.4 168.891C254.565 168.891 254.698 168.828 254.698 168.75C254.698 168.672 254.565 168.609 254.4 168.609C254.235 168.609 254.102 168.672 254.102 168.75C254.102 168.828 254.235 168.891 254.4 168.891Z" fill="#CACAD4"/>
<path d="M286.2 168.891C286.365 168.891 286.498 168.828 286.498 168.75C286.498 168.672 286.365 168.609 286.2 168.609C286.035 168.609 285.902 168.672 285.902 168.75C285.902 168.828 286.035 168.891 286.2 168.891Z" fill="#CACAD4"/>
<path d="M318 168.891C318.165 168.891 318.298 168.828 318.298 168.75C318.298 168.672 318.165 168.609 318 168.609C317.835 168.609 317.702 168.672 317.702 168.75C317.702 168.828 317.835 168.891 318 168.891Z" fill="#CACAD4"/>
<path d="M349.8 168.891C349.965 168.891 350.098 168.828 350.098 168.75C350.098 168.672 349.965 168.609 349.8 168.609C349.635 168.609 349.502 168.672 349.502 168.75C349.502 168.828 349.635 168.891 349.8 168.891Z" fill="#CACAD4"/>
<path d="M381.6 168.891C381.765 168.891 381.898 168.828 381.898 168.75C381.898 168.672 381.765 168.609 381.6 168.609C381.435 168.609 381.302 168.672 381.302 168.75C381.302 168.828 381.435 168.891 381.6 168.891Z" fill="#CACAD4"/>
<path d="M413.4 168.891C413.565 168.891 413.698 168.828 413.698 168.75C413.698 168.672 413.565 168.609 413.4 168.609C413.235 168.609 413.102 168.672 413.102 168.75C413.102 168.828 413.235 168.891 413.4 168.891Z" fill="#CACAD4"/>
<path d="M445.2 168.891C445.365 168.891 445.498 168.828 445.498 168.75C445.498 168.672 445.365 168.609 445.2 168.609C445.035 168.609 444.902 168.672 444.902 168.75C444.902 168.828 445.035 168.891 445.2 168.891Z" fill="#CACAD4"/>
<path d="M477 168.891C477.165 168.891 477.298 168.828 477.298 168.75C477.298 168.672 477.165 168.609 477 168.609C476.835 168.609 476.702 168.672 476.702 168.75C476.702 168.828 476.835 168.891 477 168.891Z" fill="#CACAD4"/>
<path d="M-1.2219e-06 187.641C0.164649 187.641 0.298124 187.578 0.298124 187.5C0.298124 187.422 0.164649 187.359 -1.2219e-06 187.359C-0.164651 187.359 -0.298126 187.422 -0.298126 187.5C-0.298126 187.578 -0.164651 187.641 -1.2219e-06 187.641Z" fill="#CACAD4"/>
<path d="M31.8 187.641C31.9647 187.641 32.0981 187.578 32.0981 187.5C32.0981 187.422 31.9647 187.359 31.8 187.359C31.6354 187.359 31.5019 187.422 31.5019 187.5C31.5019 187.578 31.6354 187.641 31.8 187.641Z" fill="#CACAD4"/>
<path d="M63.6 187.641C63.7647 187.641 63.8981 187.578 63.8981 187.5C63.8981 187.422 63.7647 187.359 63.6 187.359C63.4354 187.359 63.3019 187.422 63.3019 187.5C63.3019 187.578 63.4354 187.641 63.6 187.641Z" fill="#CACAD4"/>
<path d="M95.4 187.641C95.5646 187.641 95.6981 187.578 95.6981 187.5C95.6981 187.422 95.5646 187.359 95.4 187.359C95.2353 187.359 95.1019 187.422 95.1019 187.5C95.1019 187.578 95.2353 187.641 95.4 187.641Z" fill="#CACAD4"/>
<path d="M127.2 187.641C127.365 187.641 127.498 187.578 127.498 187.5C127.498 187.422 127.365 187.359 127.2 187.359C127.035 187.359 126.902 187.422 126.902 187.5C126.902 187.578 127.035 187.641 127.2 187.641Z" fill="#CACAD4"/>
<path d="M159 187.641C159.165 187.641 159.298 187.578 159.298 187.5C159.298 187.422 159.165 187.359 159 187.359C158.835 187.359 158.702 187.422 158.702 187.5C158.702 187.578 158.835 187.641 159 187.641Z" fill="#CACAD4"/>
<path d="M190.8 187.641C190.965 187.641 191.098 187.578 191.098 187.5C191.098 187.422 190.965 187.359 190.8 187.359C190.635 187.359 190.502 187.422 190.502 187.5C190.502 187.578 190.635 187.641 190.8 187.641Z" fill="#CACAD4"/>
<path d="M222.6 187.641C222.765 187.641 222.898 187.578 222.898 187.5C222.898 187.422 222.765 187.359 222.6 187.359C222.435 187.359 222.302 187.422 222.302 187.5C222.302 187.578 222.435 187.641 222.6 187.641Z" fill="#CACAD4"/>
<path d="M254.4 187.641C254.565 187.641 254.698 187.578 254.698 187.5C254.698 187.422 254.565 187.359 254.4 187.359C254.235 187.359 254.102 187.422 254.102 187.5C254.102 187.578 254.235 187.641 254.4 187.641Z" fill="#CACAD4"/>
<path d="M286.2 187.641C286.365 187.641 286.498 187.578 286.498 187.5C286.498 187.422 286.365 187.359 286.2 187.359C286.035 187.359 285.902 187.422 285.902 187.5C285.902 187.578 286.035 187.641 286.2 187.641Z" fill="#CACAD4"/>
<path d="M318 187.641C318.165 187.641 318.298 187.578 318.298 187.5C318.298 187.422 318.165 187.359 318 187.359C317.835 187.359 317.702 187.422 317.702 187.5C317.702 187.578 317.835 187.641 318 187.641Z" fill="#CACAD4"/>
<path d="M349.8 187.641C349.965 187.641 350.098 187.578 350.098 187.5C350.098 187.422 349.965 187.359 349.8 187.359C349.635 187.359 349.502 187.422 349.502 187.5C349.502 187.578 349.635 187.641 349.8 187.641Z" fill="#CACAD4"/>
<path d="M381.6 187.641C381.765 187.641 381.898 187.578 381.898 187.5C381.898 187.422 381.765 187.359 381.6 187.359C381.435 187.359 381.302 187.422 381.302 187.5C381.302 187.578 381.435 187.641 381.6 187.641Z" fill="#CACAD4"/>
<path d="M413.4 187.641C413.565 187.641 413.698 187.578 413.698 187.5C413.698 187.422 413.565 187.359 413.4 187.359C413.235 187.359 413.102 187.422 413.102 187.5C413.102 187.578 413.235 187.641 413.4 187.641Z" fill="#CACAD4"/>
<path d="M445.2 187.641C445.365 187.641 445.498 187.578 445.498 187.5C445.498 187.422 445.365 187.359 445.2 187.359C445.035 187.359 444.902 187.422 444.902 187.5C444.902 187.578 445.035 187.641 445.2 187.641Z" fill="#CACAD4"/>
<path d="M477 187.641C477.165 187.641 477.298 187.578 477.298 187.5C477.298 187.422 477.165 187.359 477 187.359C476.835 187.359 476.702 187.422 476.702 187.5C476.702 187.578 476.835 187.641 477 187.641Z" fill="#CACAD4"/>
<path d="M-1.2219e-06 206.391C0.164649 206.391 0.298124 206.328 0.298124 206.25C0.298124 206.172 0.164649 206.109 -1.2219e-06 206.109C-0.164651 206.109 -0.298126 206.172 -0.298126 206.25C-0.298126 206.328 -0.164651 206.391 -1.2219e-06 206.391Z" fill="#CACAD4"/>
<path d="M31.8 206.391C31.9647 206.391 32.0981 206.328 32.0981 206.25C32.0981 206.172 31.9647 206.109 31.8 206.109C31.6354 206.109 31.5019 206.172 31.5019 206.25C31.5019 206.328 31.6354 206.391 31.8 206.391Z" fill="#CACAD4"/>
<path d="M63.6 206.391C63.7647 206.391 63.8981 206.328 63.8981 206.25C63.8981 206.172 63.7647 206.109 63.6 206.109C63.4354 206.109 63.3019 206.172 63.3019 206.25C63.3019 206.328 63.4354 206.391 63.6 206.391Z" fill="#CACAD4"/>
<path d="M95.4 206.391C95.5646 206.391 95.6981 206.328 95.6981 206.25C95.6981 206.172 95.5646 206.109 95.4 206.109C95.2353 206.109 95.1019 206.172 95.1019 206.25C95.1019 206.328 95.2353 206.391 95.4 206.391Z" fill="#CACAD4"/>
<path d="M127.2 206.391C127.365 206.391 127.498 206.328 127.498 206.25C127.498 206.172 127.365 206.109 127.2 206.109C127.035 206.109 126.902 206.172 126.902 206.25C126.902 206.328 127.035 206.391 127.2 206.391Z" fill="#CACAD4"/>
<path d="M159 206.391C159.165 206.391 159.298 206.328 159.298 206.25C159.298 206.172 159.165 206.109 159 206.109C158.835 206.109 158.702 206.172 158.702 206.25C158.702 206.328 158.835 206.391 159 206.391Z" fill="#CACAD4"/>
<path d="M190.8 206.391C190.965 206.391 191.098 206.328 191.098 206.25C191.098 206.172 190.965 206.109 190.8 206.109C190.635 206.109 190.502 206.172 190.502 206.25C190.502 206.328 190.635 206.391 190.8 206.391Z" fill="#CACAD4"/>
<path d="M222.6 206.391C222.765 206.391 222.898 206.328 222.898 206.25C222.898 206.172 222.765 206.109 222.6 206.109C222.435 206.109 222.302 206.172 222.302 206.25C222.302 206.328 222.435 206.391 222.6 206.391Z" fill="#CACAD4"/>
<path d="M254.4 206.391C254.565 206.391 254.698 206.328 254.698 206.25C254.698 206.172 254.565 206.109 254.4 206.109C254.235 206.109 254.102 206.172 254.102 206.25C254.102 206.328 254.235 206.391 254.4 206.391Z" fill="#CACAD4"/>
<path d="M286.2 206.391C286.365 206.391 286.498 206.328 286.498 206.25C286.498 206.172 286.365 206.109 286.2 206.109C286.035 206.109 285.902 206.172 285.902 206.25C285.902 206.328 286.035 206.391 286.2 206.391Z" fill="#CACAD4"/>
<path d="M318 206.391C318.165 206.391 318.298 206.328 318.298 206.25C318.298 206.172 318.165 206.109 318 206.109C317.835 206.109 317.702 206.172 317.702 206.25C317.702 206.328 317.835 206.391 318 206.391Z" fill="#CACAD4"/>
<path d="M349.8 206.391C349.965 206.391 350.098 206.328 350.098 206.25C350.098 206.172 349.965 206.109 349.8 206.109C349.635 206.109 349.502 206.172 349.502 206.25C349.502 206.328 349.635 206.391 349.8 206.391Z" fill="#CACAD4"/>
<path d="M381.6 206.391C381.765 206.391 381.898 206.328 381.898 206.25C381.898 206.172 381.765 206.109 381.6 206.109C381.435 206.109 381.302 206.172 381.302 206.25C381.302 206.328 381.435 206.391 381.6 206.391Z" fill="#CACAD4"/>
<path d="M413.4 206.391C413.565 206.391 413.698 206.328 413.698 206.25C413.698 206.172 413.565 206.109 413.4 206.109C413.235 206.109 413.102 206.172 413.102 206.25C413.102 206.328 413.235 206.391 413.4 206.391Z" fill="#CACAD4"/>
<path d="M445.2 206.391C445.365 206.391 445.498 206.328 445.498 206.25C445.498 206.172 445.365 206.109 445.2 206.109C445.035 206.109 444.902 206.172 444.902 206.25C444.902 206.328 445.035 206.391 445.2 206.391Z" fill="#CACAD4"/>
<path d="M477 206.391C477.165 206.391 477.298 206.328 477.298 206.25C477.298 206.172 477.165 206.109 477 206.109C476.835 206.109 476.702 206.172 476.702 206.25C476.702 206.328 476.835 206.391 477 206.391Z" fill="#CACAD4"/>
<path d="M-1.2219e-06 225.141C0.164649 225.141 0.298124 225.078 0.298124 225C0.298124 224.922 0.164649 224.859 -1.2219e-06 224.859C-0.164651 224.859 -0.298126 224.922 -0.298126 225C-0.298126 225.078 -0.164651 225.141 -1.2219e-06 225.141Z" fill="#CACAD4"/>
<path d="M31.8 225.141C31.9647 225.141 32.0981 225.078 32.0981 225C32.0981 224.922 31.9647 224.859 31.8 224.859C31.6354 224.859 31.5019 224.922 31.5019 225C31.5019 225.078 31.6354 225.141 31.8 225.141Z" fill="#CACAD4"/>
<path d="M63.6 225.141C63.7647 225.141 63.8981 225.078 63.8981 225C63.8981 224.922 63.7647 224.859 63.6 224.859C63.4354 224.859 63.3019 224.922 63.3019 225C63.3019 225.078 63.4354 225.141 63.6 225.141Z" fill="#CACAD4"/>
<path d="M95.4 225.141C95.5646 225.141 95.6981 225.078 95.6981 225C95.6981 224.922 95.5646 224.859 95.4 224.859C95.2353 224.859 95.1019 224.922 95.1019 225C95.1019 225.078 95.2353 225.141 95.4 225.141Z" fill="#CACAD4"/>
<path d="M127.2 225.141C127.365 225.141 127.498 225.078 127.498 225C127.498 224.922 127.365 224.859 127.2 224.859C127.035 224.859 126.902 224.922 126.902 225C126.902 225.078 127.035 225.141 127.2 225.141Z" fill="#CACAD4"/>
<path d="M159 225.141C159.165 225.141 159.298 225.078 159.298 225C159.298 224.922 159.165 224.859 159 224.859C158.835 224.859 158.702 224.922 158.702 225C158.702 225.078 158.835 225.141 159 225.141Z" fill="#CACAD4"/>
<path d="M190.8 225.141C190.965 225.141 191.098 225.078 191.098 225C191.098 224.922 190.965 224.859 190.8 224.859C190.635 224.859 190.502 224.922 190.502 225C190.502 225.078 190.635 225.141 190.8 225.141Z" fill="#CACAD4"/>
<path d="M222.6 225.141C222.765 225.141 222.898 225.078 222.898 225C222.898 224.922 222.765 224.859 222.6 224.859C222.435 224.859 222.302 224.922 222.302 225C222.302 225.078 222.435 225.141 222.6 225.141Z" fill="#CACAD4"/>
<path d="M254.4 225.141C254.565 225.141 254.698 225.078 254.698 225C254.698 224.922 254.565 224.859 254.4 224.859C254.235 224.859 254.102 224.922 254.102 225C254.102 225.078 254.235 225.141 254.4 225.141Z" fill="#CACAD4"/>
<path d="M286.2 225.141C286.365 225.141 286.498 225.078 286.498 225C286.498 224.922 286.365 224.859 286.2 224.859C286.035 224.859 285.902 224.922 285.902 225C285.902 225.078 286.035 225.141 286.2 225.141Z" fill="#CACAD4"/>
<path d="M318 225.141C318.165 225.141 318.298 225.078 318.298 225C318.298 224.922 318.165 224.859 318 224.859C317.835 224.859 317.702 224.922 317.702 225C317.702 225.078 317.835 225.141 318 225.141Z" fill="#CACAD4"/>
<path d="M349.8 225.141C349.965 225.141 350.098 225.078 350.098 225C350.098 224.922 349.965 224.859 349.8 224.859C349.635 224.859 349.502 224.922 349.502 225C349.502 225.078 349.635 225.141 349.8 225.141Z" fill="#CACAD4"/>
<path d="M381.6 225.141C381.765 225.141 381.898 225.078 381.898 225C381.898 224.922 381.765 224.859 381.6 224.859C381.435 224.859 381.302 224.922 381.302 225C381.302 225.078 381.435 225.141 381.6 225.141Z" fill="#CACAD4"/>
<path d="M413.4 225.141C413.565 225.141 413.698 225.078 413.698 225C413.698 224.922 413.565 224.859 413.4 224.859C413.235 224.859 413.102 224.922 413.102 225C413.102 225.078 413.235 225.141 413.4 225.141Z" fill="#CACAD4"/>
<path d="M445.2 225.141C445.365 225.141 445.498 225.078 445.498 225C445.498 224.922 445.365 224.859 445.2 224.859C445.035 224.859 444.902 224.922 444.902 225C444.902 225.078 445.035 225.141 445.2 225.141Z" fill="#CACAD4"/>
<path d="M477 225.141C477.165 225.141 477.298 225.078 477.298 225C477.298 224.922 477.165 224.859 477 224.859C476.835 224.859 476.702 224.922 476.702 225C476.702 225.078 476.835 225.141 477 225.141Z" fill="#CACAD4"/>
</g>
<defs>
<clipPath id="clip0_1157_4715">
<rect width="477" height="225" fill="white"/>
</clipPath>
</defs>
</svg>
