<svg width="25" height="22" viewBox="0 0 25 22" fill="none" xmlns="http://www.w3.org/2000/svg">
<path d="M8 8V9" stroke="white" stroke-opacity="0.5" stroke-linecap="round"/>
<path d="M8 8C8 8.85872 8.51688 9 9 9" stroke="white" stroke-opacity="0.5" stroke-linecap="round"/>
<path d="M10 8.35758C10.5396 8.30039 10.9193 7.9293 11.4694 7.9293C11.8368 7.9293 12.2041 7.9293 12.5715 7.9293C13.0761 7.9293 14.2773 7.68147 14.6328 8.09585C15.0314 8.56064 16.0789 7.49289 16.4695 7.12032C17.1559 6.46564 16.9797 8.68109 16.9797 9" stroke="white" stroke-opacity="0.5" stroke-linecap="round"/>
<path d="M16.5317 10C18.3026 10 18.5459 13.3035 16.8537 13.7157C16.0134 13.9204 15.1851 14.3742 14.3468 14.5784C14.0573 14.649 13.0372 14.4116 13.0129 14.7647C12.9809 15.2277 12.9943 15.6154 13.2199 16" stroke="white" stroke-opacity="0.5" stroke-linecap="round"/>
<path d="M7.71619 10C6.27331 10.1616 7.29988 12.9655 8.26729 13.3556C8.85016 13.5906 9.81018 14.2 10.3945 14.2C11.5536 14.2 10.6921 15.3147 10.6921 16" stroke="white" stroke-opacity="0.5" stroke-linecap="round"/>
<path d="M10 15C10 15.6237 10 16.2838 10 17" stroke="white" stroke-opacity="0.5" stroke-linecap="round"/>
<path d="M10 16.6412C8.69249 17.6479 6 16.3551 6 15" stroke="white" stroke-opacity="0.5" stroke-linecap="round"/>
<path d="M4.15506 4.12121C3.16065 4.23488 2.59705 6.77399 2.05169 7.47533C1.36206 8.36218 1 10.1014 1 11.2622C1 13.5956 1.68267 17.1284 3.85124 18.4033C4.97814 19.0658 5.8852 19.8435 7.09978 20.3989C8.41092 20.9984 9.96581 21 11.4117 21C15.1059 21 18.677 19.9005 21.8234 17.9224C24.6067 16.1725 23.9268 11.0873 23.9268 8.23271C23.9268 5.81143 22.841 3.45886 20.6548 2.17365C17.8642 0.533057 13.9777 1.09168 10.7807 1.09168C10.0796 1.09168 9.37843 1.09168 8.67731 1.09168C7.99056 1.09168 7.50183 1.48741 6.88944 1.52447C6.07992 1.57346 4.46393 3.05288 4.15506 3.68842" stroke="white" stroke-opacity="0.5" stroke-linecap="round"/>
</svg>
