<svg width="24" height="24" viewBox="0 0 24 24" fill="none" xmlns="http://www.w3.org/2000/svg">
<g clip-path="url(#clip0_1731_2)">
<path d="M12 0C5.373 0 0 5.373 0 12C0 18.627 5.373 24 12 24C18.627 24 24 18.627 24 12C24 5.373 18.627 0 12 0ZM18.489 13.965C17.238 13.14 16.524 12.442 15.9 11.188C15.473 12.047 14.479 13.323 12.802 14.327C11.962 16.937 7.979 21.932 6.689 21.212C6.308 21.017 6.237 20.732 6.322 20.447C6.415 19.743 7.888 18.107 7.888 18.107C7.888 18.107 7.917 18.452 8.382 19.172C7.753 17.236 9.403 14.867 9.838 14.041C10.527 13.832 10.572 12.946 10.572 12.946C10.618 11.582 10.003 10.606 9.417 10.006C9.838 10.531 9.973 11.312 9.987 12.031V12.286C9.958 12.887 9.777 13.696 9.402 13.696V13.712C9.012 13.696 8.517 13.786 8.083 13.922L7.122 14.161C7.122 14.161 7.632 14.146 7.902 14.387C7.588 14.897 6.897 15.512 6.131 15.871C5.022 16.396 4.692 15.361 5.262 14.701C5.397 14.536 5.547 14.401 5.666 14.297C5.57484 14.1987 5.52198 14.071 5.517 13.937C5.442 13.592 5.472 13.157 5.967 12.452C6.057 12.303 6.177 12.152 6.312 12.003L6.327 11.987L6.343 11.972V11.957C6.372 11.911 6.417 11.881 6.447 11.837C7.017 11.252 7.932 10.637 9.358 10.097C11.052 7.607 11.667 7.141 11.667 7.141C11.848 6.962 12.178 6.722 12.282 6.662C11.412 5.147 11.233 3.016 11.458 2.447C11.4291 2.47627 11.4081 2.5124 11.397 2.552C11.487 2.357 11.532 2.297 11.622 2.192C11.862 1.922 12.657 1.772 12.958 2.372C13.108 2.687 13.138 3.107 13.138 3.407C12.493 3.378 11.923 4.097 11.923 4.097C11.923 4.097 12.447 3.857 13.109 3.842C13.109 3.842 13.288 4.006 13.498 4.291C13.214 4.847 12.719 6.016 13.078 7.262C13.139 7.502 13.228 7.712 13.334 7.891C13.349 7.907 13.349 7.907 13.349 7.922L13.379 7.951C13.964 8.837 15.028 8.927 15.028 8.927C14.5303 8.68344 14.1215 8.28999 13.859 7.802C13.7453 7.59722 13.6544 7.38059 13.588 7.156C13.303 6.076 13.723 5.431 13.963 5.011C14.2406 4.58375 14.6318 4.24233 15.0926 4.02506C15.5535 3.8078 16.0658 3.72328 16.572 3.781C16.9291 3.82093 17.2747 3.9312 17.589 4.10543C17.9032 4.27965 18.1798 4.51439 18.4029 4.7961C18.6259 5.07781 18.791 5.4009 18.8885 5.74673C18.986 6.09256 19.014 6.45427 18.971 6.811C18.9212 7.24625 18.7671 7.66305 18.5218 8.02603C18.2765 8.389 17.9473 8.68744 17.562 8.896C17.743 9.39 17.547 9.976 17.547 9.976C17.996 10.546 18.026 10.876 18.012 11.191C17.427 11.101 16.871 11.492 16.871 11.492C16.871 11.492 17.982 11.236 18.627 11.806C19.047 12.255 19.331 12.676 19.496 12.976C19.736 13.411 20.846 13.441 20.725 14.206C20.59 14.985 19.736 14.985 18.415 14.116L18.489 13.965ZM13.665 9.355C13.5595 9.24978 13.4165 9.1907 13.2675 9.1907C13.1185 9.1907 12.9755 9.24978 12.87 9.355L12.405 9.823C12.3523 9.875 12.3104 9.93697 12.2818 10.0053C12.2532 10.0736 12.2385 10.1469 12.2385 10.221C12.2385 10.2951 12.2532 10.3684 12.2818 10.4367C12.3104 10.505 12.3523 10.567 12.405 10.619L12.915 11.129C13.137 11.354 13.492 11.339 13.71 11.129L14.18 10.663C14.2325 10.6111 14.2743 10.5493 14.3027 10.4811C14.3312 10.413 14.3459 10.3399 14.3459 10.266C14.3459 10.1921 14.3312 10.119 14.3027 10.0509C14.2743 9.98272 14.2325 9.9209 14.18 9.869L13.665 9.344V9.355ZM11.46 9.169C11.3926 9.23698 11.3549 9.3288 11.3549 9.4245C11.3549 9.5202 11.3926 9.61202 11.46 9.68C11.5283 9.74634 11.6198 9.78345 11.715 9.78345C11.8102 9.78345 11.9017 9.74634 11.97 9.68C12.0378 9.61237 12.0759 9.52059 12.076 9.42485C12.0761 9.32912 12.0381 9.23726 11.9705 9.1695C11.9029 9.10174 11.8111 9.06362 11.7154 9.06352C11.6196 9.06343 11.5278 9.10137 11.46 9.169ZM12.729 8.917C12.7627 8.88362 12.7894 8.8439 12.8077 8.80013C12.8259 8.75637 12.8353 8.70942 12.8353 8.662C12.8353 8.61458 12.8259 8.56763 12.8077 8.52386C12.7894 8.4801 12.7627 8.44038 12.729 8.407C12.6607 8.34066 12.5692 8.30355 12.474 8.30355C12.3788 8.30355 12.2873 8.34066 12.219 8.407C12.1522 8.47506 12.1148 8.56662 12.1148 8.662C12.1148 8.75737 12.1522 8.84894 12.219 8.917C12.2524 8.95068 12.2921 8.97742 12.3359 8.99566C12.3796 9.01391 12.4266 9.0233 12.474 9.0233C12.5214 9.0233 12.5684 9.01391 12.6121 8.99566C12.6559 8.97742 12.6956 8.95068 12.729 8.917ZM18.114 7.613C18.705 6.482 17.867 5.822 17.289 5.281C16.365 4.411 15.443 4.036 14.389 5.252C13.337 6.451 14.006 7.861 14.969 8.536C15.929 9.226 17.504 8.762 18.104 7.621L18.114 7.613ZM16.519 7.15C16.147 6.705 16.841 5.898 17.276 6.38C18.076 7.27 16.889 7.596 16.519 7.15Z" fill="#8D8D8D"/>
</g>
<defs>
<clipPath id="clip0_1731_2">
<rect width="24" height="24" fill="white"/>
</clipPath>
</defs>
</svg>
