<svg width="24" height="24" viewBox="0 0 24 24" fill="none" xmlns="http://www.w3.org/2000/svg">
<path d="M12 8V2H6C5.46957 2 4.96086 2.21071 4.58579 2.58579C4.21071 2.96086 4 3.46957 4 4V14.018C4.35748 13.9663 4.72221 14.0265 5.04412 14.1903C5.36604 14.3542 5.62937 14.6136 5.798 14.933C6.07354 14.6382 6.40678 14.4033 6.777 14.2428C7.14721 14.0823 7.54649 13.9996 7.95 14H8.05C8.83239 14 9.58273 14.3108 10.136 14.864C10.6892 15.4173 11 16.1676 11 16.95V17C11 17.45 10.83 17.86 10.55 18.17C10.838 18.609 11 19.13 11 19.677V20.05C11 20.797 10.722 21.48 10.264 22H18C18.5304 22 19.0391 21.7893 19.4142 21.4142C19.7893 21.0391 20 20.5304 20 20V10H14C13.4696 10 12.9609 9.78929 12.5858 9.41421C12.2107 9.03914 12 8.53043 12 8ZM13.5 8V2.5L19.5 8.5H14C13.8674 8.5 13.7402 8.44732 13.6464 8.35355C13.5527 8.25979 13.5 8.13261 13.5 8ZM4.25 15C4.44891 15 4.63968 15.079 4.78033 15.2197C4.92098 15.3603 5 15.5511 5 15.75V20C5 20.5304 4.78929 21.0391 4.41421 21.4142C4.03914 21.7893 3.53043 22 3 22C2.46957 22 1.96086 21.7893 1.58579 21.4142C1.21071 21.0391 1 20.5304 1 20V19.75C1 19.5511 1.07902 19.3603 1.21967 19.2197C1.36032 19.079 1.55109 19 1.75 19C1.94891 19 2.13968 19.079 2.28033 19.2197C2.42098 19.3603 2.5 19.5511 2.5 19.75V20C2.5 20.1326 2.55268 20.2598 2.64645 20.3536C2.74021 20.4473 2.86739 20.5 3 20.5C3.13261 20.5 3.25979 20.4473 3.35355 20.3536C3.44732 20.2598 3.5 20.1326 3.5 20V15.75C3.5 15.5511 3.57902 15.3603 3.71967 15.2197C3.86032 15.079 4.05109 15 4.25 15ZM7.95 15C7.43283 15 6.93684 15.2054 6.57114 15.5711C6.20545 15.9368 6 16.4328 6 16.95V17.184C6 17.798 6.323 18.368 6.85 18.684L8.379 19.602C8.41589 19.6242 8.44642 19.6556 8.46762 19.6931C8.48882 19.7306 8.49997 19.7729 8.5 19.816V20.05C8.5 20.1693 8.45259 20.2838 8.3682 20.3682C8.28381 20.4526 8.16935 20.5 8.05 20.5H7.95C7.83065 20.5 7.71619 20.4526 7.6318 20.3682C7.54741 20.2838 7.5 20.1693 7.5 20.05V20C7.5 19.8011 7.42098 19.6103 7.28033 19.4697C7.13968 19.329 6.94891 19.25 6.75 19.25C6.55109 19.25 6.36032 19.329 6.21967 19.4697C6.07902 19.6103 6 19.8011 6 20V20.05C6 20.5672 6.20545 21.0632 6.57114 21.4289C6.93684 21.7946 7.43283 22 7.95 22H8.05C8.56717 22 9.06316 21.7946 9.42886 21.4289C9.79455 21.0632 10 20.5672 10 20.05V19.816C9.99986 19.5139 9.92149 19.2169 9.77254 18.9541C9.62358 18.6912 9.40911 18.4714 9.15 18.316L7.621 17.398C7.5841 17.3758 7.55358 17.3444 7.53238 17.3069C7.51118 17.2694 7.50003 17.2271 7.5 17.184V16.95C7.5 16.8307 7.54741 16.7162 7.6318 16.6318C7.71619 16.5474 7.83065 16.5 7.95 16.5H8.05C8.16935 16.5 8.28381 16.5474 8.3682 16.6318C8.45259 16.7162 8.5 16.8307 8.5 16.95V17C8.5 17.1989 8.57902 17.3897 8.71967 17.5303C8.86032 17.671 9.05109 17.75 9.25 17.75C9.44891 17.75 9.63968 17.671 9.78033 17.5303C9.92098 17.3897 10 17.1989 10 17V16.95C10 16.4328 9.79455 15.9368 9.42886 15.5711C9.06316 15.2054 8.56717 15 8.05 15H7.95Z" fill="#8D8D8D"/>
</svg>
