<svg width="40" height="58" viewBox="0 0 40 58" fill="none" xmlns="http://www.w3.org/2000/svg">
<path fill-rule="evenodd" clip-rule="evenodd" d="M17.6474 7.68185L17.6474 7.68531L17.6474 49.403C17.6548 52.5557 20.1633 55.0788 23.2193 55.0788C26.1734 55.0788 28.6158 52.7212 28.7822 49.7161L28.7821 49.7072V7.68531C28.7821 7.64316 28.7847 7.60163 28.7898 7.56085C28.7225 4.46197 26.2381 2 23.2193 2C20.1613 2 17.6517 4.5263 17.6474 7.68185ZM30.7821 7.82517C30.7881 7.78094 30.7912 7.73579 30.7912 7.68992C30.7912 3.45975 27.4178 0 23.2193 0C19.0207 0 15.6474 3.45975 15.6474 7.68992L15.6474 7.69472L15.6474 49.3831L15.6474 49.3889L15.6474 49.4052V49.7072C15.6474 49.7672 15.6527 49.826 15.6628 49.8831C15.9133 53.8852 19.1854 57.0788 23.2193 57.0788C27.4178 57.0788 30.7912 53.6191 30.7912 49.3889C30.7912 49.343 30.7881 49.2979 30.7821 49.2536V7.82517ZM35.612 9.89227C36.6578 10.9381 37.2453 12.3564 37.2453 13.8354C37.2453 15.3144 36.6578 16.7328 35.612 17.7785C35.0235 18.367 34.5398 18.7617 34.0421 19.0169C33.5626 19.2629 33.0236 19.4028 32.2948 19.4028C31.7425 19.4028 31.2948 19.8505 31.2948 20.4028C31.2948 20.9551 31.7425 21.4028 32.2948 21.4028C33.3102 21.4028 34.1666 21.2008 34.9549 20.7965C35.725 20.4015 36.3814 19.8376 37.0262 19.1928C38.4471 17.7719 39.2453 15.8448 39.2453 13.8354C39.2453 11.826 38.4471 9.89891 37.0262 8.47806C36.3825 7.83434 35.7267 7.26839 34.9574 6.87107C34.1695 6.46415 33.3123 6.25897 32.2948 6.25897C31.7425 6.25897 31.2948 6.70668 31.2948 7.25897C31.2948 7.81125 31.7425 8.25897 32.2948 8.25897C33.0214 8.25897 33.5597 8.40023 34.0396 8.64807C34.5381 8.90552 35.0224 9.30266 35.612 9.89227ZM13.1142 35.0813C12.9072 33.6358 12.2847 32.5605 11.472 31.8097C10.4536 30.8687 9.07414 30.3808 7.66779 30.3808C6.26143 30.3808 4.88194 30.8687 3.86352 31.8097C2.86058 32.7363 2.14723 34.1573 2.14723 36.1584V43.6372C2.14723 45.6383 2.86058 47.0593 3.86352 47.9859C4.88194 48.9269 6.26143 49.4148 7.66779 49.4148C7.73247 49.4148 7.79712 49.4138 7.86166 49.4117C10.6643 49.0953 13.0776 46.6139 13.1512 43.683C13.1463 43.643 13.1438 43.6022 13.1438 43.5609V35.7372C13.1438 35.6952 13.1464 35.6538 13.1514 35.6132C13.1474 35.4337 13.1348 35.2562 13.1142 35.0813ZM8.00592 51.4077C7.75908 51.4329 7.50985 51.4458 7.25896 51.4458C2.95486 51.4458 2.02656e-05 47.6174 2.02656e-05 43.5609L0 35.7419V35.7418V35.7372C0.00245047 31.5549 3.3936 28.1653 7.57644 28.1653C11.4564 28.1653 14.6551 31.0818 15.1 34.8421C15.1581 35.2624 15.1883 35.7013 15.1883 36.1584V43.6372C15.1883 46.1546 14.2716 48.1224 12.8293 49.4549C11.4892 50.6931 9.7486 51.3344 8.00592 51.4077ZM7.30902 31.8332C7.68386 32.307 7.07564 33.4127 5.95054 34.3029C4.82543 35.1932 3.60949 35.5308 3.23465 35.0571C2.85981 34.5833 3.46802 33.4776 4.59313 32.5874C5.71824 31.6972 6.93418 31.3595 7.30902 31.8332ZM21.7174 5.88915C22.8425 4.99891 23.4507 3.89319 23.0759 3.41946C22.701 2.94574 21.4851 3.28338 20.36 4.17362C19.2349 5.06386 18.6267 6.16958 19.0015 6.64331C19.3763 7.11703 20.5923 6.77939 21.7174 5.88915Z" fill="url(#paint0_linear_1609_32)"/>
<defs>
<linearGradient id="paint0_linear_1609_32" x1="34.1067" y1="-4.31939" x2="6.84049" y2="54.3863" gradientUnits="userSpaceOnUse">
<stop stop-color="white"/>
<stop offset="1" stop-color="white"/>
</linearGradient>
</defs>
</svg>
