<svg width="62" height="90" viewBox="0 0 62 90" fill="none" xmlns="http://www.w3.org/2000/svg">
<path fill-rule="evenodd" clip-rule="evenodd" d="M27 11.6812L27 11.6765C27.0064 6.31438 31.2739 2 36.5 2C41.6749 2 45.9098 6.23022 45.9986 11.5191C45.99 11.5719 45.9855 11.626 45.9855 11.6812V78.8201C45.9855 78.8286 45.9856 78.8371 45.9858 78.8456C45.7137 83.9629 41.5553 88 36.5 88C31.2775 88 27.0123 83.6916 27 78.3347L27 11.6812ZM48 11.6886C48 11.7467 47.995 11.8037 47.9855 11.8591V78.1409C47.995 78.1963 48 78.2533 48 78.3114C48 84.75 42.868 90 36.5 90C30.3691 90 25.3839 85.1337 25.0211 79.0254C25.0073 78.9591 25 78.8905 25 78.8201V78.3368L25 78.3114L25 78.3041L25 11.6946L25 11.6886C25 5.25 30.132 0 36.5 0C42.868 0 48 5.25 48 11.6886ZM59.5072 21.5072C59.5072 18.9858 58.5055 16.5676 56.7226 14.7846C55.7644 13.8264 54.9394 13.1414 54.062 12.6883C53.2033 12.2448 52.2479 12 51 12C50.4477 12 50 11.5523 50 11C50 10.4477 50.4477 10 51 10C52.5388 10 53.813 10.3087 54.9798 10.9113C56.128 11.5043 57.1245 12.3581 58.1368 13.3704C60.2948 15.5284 61.5072 18.4553 61.5072 21.5072C61.5072 24.5592 60.2948 27.4861 58.1368 29.6441C57.1234 30.6575 56.1263 31.5079 54.9773 32.0972C53.8102 32.6958 52.5366 33 51 33C50.4477 33 50 32.5523 50 32C50 31.4477 50.4477 31 51 31C52.2501 31 53.2061 30.7579 54.0646 30.3176C54.9411 29.8681 55.7655 29.187 56.7226 28.2299C58.5056 26.4469 59.5072 24.0287 59.5072 21.5072ZM2 56.5068V56.5073L2.00003 69C2.00003 74.3786 5.86904 79 11 79C16.2093 79 20.9068 74.5267 21.0127 69.16C21.0044 69.1079 21 69.0545 21 69V56.5C21 56.4449 21.0045 56.3909 21.013 56.3382C20.9228 51.1655 16.7015 47 11.5072 47C6.2567 47 2.00026 51.2563 2 56.5068ZM5.66244e-06 56.4957C0.00622326 50.1458 5.15581 45 11.5072 45C17.8625 45 23.0145 50.152 23.0145 56.5073C23.0145 56.5654 23.0095 56.6224 23 56.6778V68.8292C23.0097 68.8855 23.0147 68.9434 23.0145 69.0024C22.9986 75.5638 17.3442 81 11 81C4.52498 81 3.24249e-05 75.2274 3.24249e-05 69L0 56.5075V56.5073V56.5067V56.5L5.66244e-06 56.4957Z" fill="url(#paint0_linear_1168_60)"/>
<defs>
<linearGradient id="paint0_linear_1168_60" x1="53.4537" y1="-6.81067" x2="10.2935" y2="85.5549" gradientUnits="userSpaceOnUse">
<stop stop-color="white"/>
<stop offset="1" stop-color="white"/>
</linearGradient>
</defs>
</svg>
