<svg width="317" height="293" viewBox="0 0 317 293" fill="none" xmlns="http://www.w3.org/2000/svg">
<g opacity="0.32">
<path d="M99 124C100.714 123.81 102.294 122.263 103.778 121.5C105.907 120.405 108.398 118.602 110 117" stroke="white" stroke-linecap="round"/>
<path d="M103 130.5C105.826 130.217 109.191 126.811 111.278 125.111C112.838 123.84 115.814 121 118 121" stroke="white" stroke-linecap="round"/>
<path d="M192 123C190.883 123.846 187.08 125.945 186.5 127.25C185.968 128.446 185.123 129.439 184 130" stroke="white" stroke-linecap="round"/>
<path d="M90.3619 112.488C94.7004 112.488 98.7314 110.2 103.111 110.2C107.048 110.2 111.018 110.854 114.898 110.854C120.777 110.854 126.655 110.854 132.533 110.854C136.842 110.854 142.255 110.823 146.191 112.688C150.604 114.779 154.816 116.084 159.667 116.084C161.746 116.084 164.024 116.411 166.205 116.411C168.48 116.411 170.501 115.757 172.743 115.757C175.003 115.757 178.114 115.708 180.262 114.849C181.191 114.478 182.124 114.796 183.041 114.286C183.856 113.833 185.211 113.796 186.146 113.796C188.299 113.796 190.5 112.815 192.521 112.815C193.455 112.815 194.199 112.207 194.973 112.161C195.487 112.131 197.286 112.049 197.588 111.671C198.483 110.552 202.4 111.181 203.799 111.181C205.979 111.181 208.158 111.181 210.338 111.181C213.027 111.181 215.544 112.015 218.183 112.161C220.258 112.277 222.353 114.015 224.395 114.123C226.467 114.232 228.375 115.43 230.461 115.43C231.481 115.43 232.476 115.757 233.548 115.757C234.471 115.757 234.842 117.116 235.183 117.882C236.049 119.831 236.428 120.75 235.437 122.622C234.609 124.186 233.108 125.101 232.313 126.691C230.628 130.061 230.746 133.842 229.934 137.497C229.691 138.588 229.556 139.688 229.317 140.766C229.147 141.528 228.691 142.388 228.645 143.218C228.523 145.398 226.154 147.516 226.029 149.756C225.947 151.236 224.354 152.472 224.05 153.842C223.682 155.497 222.255 156.827 221.271 158.092C219.947 159.794 217.763 160.276 216.295 161.597C215.058 162.71 213.083 163.486 211.318 163.486C207.262 163.486 203.206 163.486 199.15 163.486C195.477 163.486 189.99 163.877 187.454 160.707C186.49 159.502 184.834 159.272 183.785 158.328C182.183 156.886 180.305 155.704 178.7 154.26C176.01 151.839 173.748 147.96 172.725 144.38C172.306 142.914 171.199 140.825 171.109 139.295C171.023 137.846 170.036 136.615 169.819 135.208C169.674 134.269 169.787 132.413 169.22 131.703C168.522 130.831 168.38 128.18 166.695 128.18C165.154 128.18 163.404 127.526 161.792 127.526C159.432 127.526 158.268 127.2 157.124 129.487C156.224 131.287 156.752 133.501 155.816 135.372C153.676 139.652 151.275 144.093 149.533 148.448C148.843 150.171 146.956 152.08 145.61 153.352C144.242 154.644 142.387 155.558 141.178 156.766C139.713 158.231 136.24 158.182 134.349 158.655C131.35 159.405 128.071 159.89 124.942 159.89C119.864 159.89 114.093 160.641 109.159 159.545C107.642 159.208 105.561 157.617 104.492 156.548C103.263 155.32 102.624 153.663 101.404 152.444C100.401 151.44 100.054 149.599 99.025 148.775C98.509 148.362 98.0719 147.298 97.6266 146.741C97.2006 146.209 96.6512 144.875 96.4097 144.198C95.7287 142.291 95.1986 140.207 94.3575 138.314C93.5318 136.456 92.6503 134.216 92.6503 132.175C92.6503 128.198 91.6695 124.274 91.6695 120.171C91.6695 118.666 90.3686 116.374 89.4538 115.358C89.1553 115.026 89.0543 113.449 89.0543 112.979C89.0543 111.802 90.0585 112.161 91.0157 112.161" stroke="#29FFBF" stroke-linecap="round"/>
<path d="M88.3076 115.288C92.6462 115.288 96.6771 113 101.057 113C104.994 113 108.964 113.654 112.844 113.654C118.722 113.654 124.601 113.654 130.479 113.654C134.788 113.654 140.2 113.624 144.137 115.488C148.55 117.579 152.762 118.884 157.612 118.884C159.692 118.884 161.97 119.211 164.151 119.211C166.426 119.211 168.447 118.557 170.689 118.557C172.949 118.557 176.06 118.508 178.208 117.649C179.136 117.278 180.07 117.596 180.986 117.086C181.802 116.633 183.157 116.596 184.092 116.596C186.245 116.596 188.446 115.615 190.467 115.615C191.401 115.615 192.145 115.007 192.919 114.961C193.433 114.931 195.232 114.849 195.534 114.471C196.429 113.352 200.346 113.981 201.745 113.981C203.925 113.981 206.104 113.981 208.283 113.981C210.973 113.981 213.49 114.815 216.129 114.961C218.204 115.077 220.298 116.815 222.341 116.923C224.413 117.032 226.321 118.231 228.406 118.231C229.427 118.231 230.422 118.557 231.494 118.557C232.417 118.557 232.788 119.916 233.129 120.682C233.995 122.631 234.374 123.55 233.383 125.423C232.555 126.987 231.054 127.901 230.259 129.491C228.574 132.861 228.692 136.643 227.88 140.297C227.637 141.389 227.502 142.488 227.262 143.566C227.093 144.328 226.636 145.188 226.59 146.018C226.469 148.198 224.099 150.316 223.975 152.556C223.893 154.036 222.3 155.272 221.995 156.642C221.628 158.298 220.201 159.627 219.217 160.892C217.893 162.594 215.709 163.076 214.24 164.397C213.004 165.51 211.029 166.286 209.264 166.286C205.208 166.286 201.152 166.286 197.096 166.286C193.422 166.286 187.936 166.678 185.4 163.508C184.435 162.302 182.78 162.072 181.731 161.128C180.128 159.686 178.251 158.505 176.646 157.06C173.956 154.639 171.694 150.761 170.671 147.18C170.252 145.714 169.144 143.625 169.054 142.095C168.969 140.646 167.981 139.416 167.765 138.009C167.62 137.069 167.733 135.213 167.165 134.503C166.467 133.631 166.326 130.98 164.641 130.98C163.099 130.98 161.35 130.326 159.737 130.326C157.378 130.326 156.214 130 155.07 132.288C154.17 134.087 154.697 136.301 153.762 138.172C151.622 142.452 149.221 146.893 147.478 151.248C146.789 152.971 144.902 154.88 143.555 156.152C142.188 157.444 140.333 158.358 139.124 159.566C137.659 161.032 134.186 160.983 132.295 161.455C129.296 162.205 126.016 162.69 122.887 162.69C117.809 162.69 112.039 163.442 107.105 162.345C105.588 162.008 103.506 160.417 102.437 159.348C101.209 158.12 100.57 156.464 99.3499 155.244C98.3463 154.24 98.0002 152.399 96.9707 151.575C96.4547 151.162 96.0177 150.098 95.5723 149.541C95.1464 149.009 94.597 147.675 94.3555 146.999C93.6744 145.092 93.1443 143.007 92.3032 141.114C91.4775 139.256 90.596 137.016 90.596 134.976C90.596 130.998 89.6153 127.074 89.6153 122.971C89.6153 121.467 88.3143 119.174 87.3996 118.158C87.1011 117.826 87 116.25 87 115.779C87 114.602 88.0042 114.961 88.9615 114.961" stroke="#CACAD4" stroke-linecap="round"/>
<path d="M133.783 194.196C137.966 194.196 142.057 195.177 146.369 195.177C150.676 195.177 154.873 195.504 159.118 195.504C161.134 195.504 163.15 195.504 165.166 195.504C167.254 195.504 169.166 194.85 171.051 194.85C173.226 194.85 175.451 194.322 177.589 194.196C178.763 194.127 180.209 194.498 181.33 194.178C182.136 193.948 182.894 193.542 183.8 193.542" stroke="#CACAD4" stroke-linecap="round"/>
<path d="M132.802 194.523C132.839 194.19 135.619 192.315 136.071 192.235C137.097 192.054 138.855 190.995 139.667 190.273C141.405 188.728 144.441 188.547 146.278 187.077C147.023 186.481 148.516 186.8 149.22 186.096C149.957 185.359 151.706 185.37 152.744 185.37C155.397 185.37 156.989 186.677 159.772 186.677C161.521 186.677 161.111 185.915 162.388 185.206C163.333 184.681 165.236 185.043 166.311 185.043C166.895 185.043 167.692 184.9 168.254 185.061C168.807 185.219 169.329 185.877 169.907 186.005C170.981 186.244 171.845 187.126 172.849 187.349C173.866 187.575 174.889 188.301 175.791 188.802C176.615 189.26 178.315 189.384 178.897 190.11C179.544 190.92 181.727 190.461 182.493 191.418C183.202 192.304 184.197 192.048 184.781 193.216" stroke="#CACAD4" stroke-linecap="round"/>
<path d="M133.783 196.485C136.387 196.485 137.565 198.756 139.849 199.409C141.253 199.81 143.554 201.098 144.644 201.969C145.094 202.329 146.798 202.842 147.368 203.005C148.168 203.233 149.517 203.677 150.292 203.677C152.483 203.677 155.121 204.004 157.502 204.004C158.219 204.004 160.601 204.387 161.171 203.931C162.092 203.194 163.759 203.757 164.839 203.277C166.831 202.392 169.615 202.709 171.396 201.225C171.683 200.985 173.628 200.126 173.993 200.081C174.438 200.025 175.848 198.698 176.209 198.373C177.706 197.026 179.508 196.342 181.185 195.504" stroke="#CACAD4" stroke-linecap="round"/>
<path d="M142.61 169.024C142.776 167.693 147.049 167.39 148.167 167.39C149.943 167.39 151.288 168.296 152.744 169.024" stroke="#CACAD4" stroke-linecap="round"/>
<path d="M166.801 169.351C167.662 169.244 168.27 168.697 169.253 168.697C170.288 168.697 171.323 168.697 172.358 168.697" stroke="#CACAD4" stroke-linecap="round"/>
<path d="M141.956 155.621C141.011 155.739 141.139 157.713 140.485 158.236C139.89 158.712 139.852 159.868 139.268 160.452C137.904 161.816 138.033 164.565 138.033 166.409" stroke="#CACAD4" stroke-linecap="round"/>
<path d="M176.935 158.89C177.758 158.993 179.059 162.689 179.623 163.394C180.662 164.693 179.294 168.044 177.589 168.044" stroke="#CACAD4" stroke-linecap="round"/>
<path d="M153.724 171.64C154.889 171.64 155.619 172.62 156.503 172.62C157.618 172.62 158.822 172.947 159.772 172.947C162.434 172.947 163.678 172.384 165.82 171.313" stroke="#CACAD4" stroke-linecap="round"/>
<path d="M229.241 127.834C230.603 127.834 231.965 127.834 233.327 127.834C234.935 127.834 235.221 128.957 236.269 129.795C236.917 130.313 237.694 132.563 237.74 133.391C237.819 134.816 238.067 136.154 238.067 137.641C238.067 139.003 238.067 140.365 238.067 141.727C238.067 142.493 238.448 142.873 238.794 143.525C239.167 144.231 239.048 145.028 239.048 145.814C239.048 147.23 239.048 148.647 239.048 150.064C239.048 151.062 238.607 153.819 237.995 154.568C237.358 155.345 237.349 156.095 237.014 157.001C236.583 158.165 235.817 159.34 235.307 160.506C234.835 161.585 234.151 162.871 233.836 163.975C233.254 166.01 231.446 168.256 231.202 170.332C231.105 171.153 229.745 173.066 229.077 173.601C228.231 174.278 228.031 175.484 227.116 176.216C226.411 176.78 224.892 177.472 224.01 177.524C223.369 177.562 222.943 178.036 222.23 177.833C221.583 177.648 221.595 177.197 220.741 177.197" stroke="#CACAD4" stroke-linecap="round"/>
<path d="M83.1121 175.562C83.1121 172.25 79.6609 171.131 77.6999 169.17C76.73 168.2 75.0001 166.76 73.8133 166.082C72.5273 165.347 72.0765 163.531 71.1617 162.486C68.6904 159.662 68.5263 156.066 67.0935 152.842C66.7203 152.003 66.8115 151.288 66.7666 150.39C66.7224 149.507 66.1128 148.875 66.1128 147.92C66.1128 146.06 65.459 144.258 65.459 142.399C65.459 137.643 64.622 131.431 68.1469 127.906C69.8739 126.179 72.2668 125.545 74.6851 125.545C77.4379 125.545 79.6902 128.182 80.8237 130.449" stroke="#CACAD4" stroke-linecap="round"/>
<path d="M79.843 142.545C78.5079 142.545 76.7621 142.14 75.9927 143.525C75.43 144.538 75.0104 146.738 74.1221 147.448C73.7615 147.737 73.9586 148.813 73.9586 149.246C73.9586 150.335 74.3406 149.713 74.9575 150.227C75.7826 150.915 78.7272 150.39 79.843 150.39" stroke="#CACAD4" stroke-linecap="round"/>
<path d="M226.298 163.14C228.127 163.14 228.914 162.962 228.914 160.852C228.914 159.411 228.914 157.97 228.914 156.529C228.914 154.097 230.471 151.745 228.914 149.41" stroke="#CACAD4" stroke-linecap="round"/>
<path d="M82.4583 156.275C82.5681 157.374 83.1121 158.371 83.1121 159.471C83.1121 160.304 82.8396 161.709 83.1847 162.486C83.6109 163.445 83.2672 164.47 83.6932 165.428C83.9522 166.011 84.3841 167.73 84.4197 168.37C84.6611 172.716 86.7673 177.055 87.707 181.283C88.6378 185.472 91.3585 189.513 93.3189 193.216C94.0394 194.576 95.1329 196.334 96.5154 197.066C97.446 197.558 100.457 199.902 100.747 200.916C100.941 201.596 102.035 202.368 102.563 202.896C103.314 203.646 103.709 204.615 104.543 205.329C106.143 206.701 106.871 208.9 108.284 210.396C108.944 211.095 109.712 211.791 110.246 212.576C110.819 213.419 111.826 214.261 112.28 215.118C113.074 216.619 114.902 217.607 115.476 219.187C115.911 220.382 117.636 221.496 118.418 222.474C119.293 223.567 120.375 224.504 121.288 225.325C124.034 227.797 126.066 231.158 129.697 232.772C130.928 233.319 131.947 234.176 133.311 234.424C135.165 234.761 137.302 235.02 139.104 235.55C141.569 236.275 144.439 236.041 147.005 236.041C148.625 236.041 150.06 236.539 151.636 236.676C158.154 237.243 164.446 238.656 171.051 238.656C173.621 238.656 175.948 238.186 177.988 236.694C179.141 235.852 180.053 234.883 181.258 234.079C182.248 233.419 183.822 232.293 184.599 231.446C186.063 229.849 187.767 228.389 189.557 227.196C190.592 226.506 191.091 225.844 191.828 225.107C192.576 224.358 194.716 223.11 194.915 221.984C195.019 221.393 196.429 219.816 196.877 219.368C197.586 218.658 198.629 217.587 199.092 216.753C200.076 214.982 201.288 212.977 202.597 211.522C205.356 208.457 209.011 206.274 211.66 203.095C214.792 199.338 217.68 194.648 218.761 189.783C219.596 186.028 222.049 182.272 222.049 178.505" stroke="#CACAD4" stroke-linecap="round"/>
<path d="M85.0735 105.931C85.0735 103.284 86.1259 100.73 86.363 98.1212C86.4867 96.7604 86.8328 95.4782 87.1985 94.162C87.5343 92.9531 87.0125 91.5126 87.5254 90.3844C87.9293 89.4958 87.3322 88.3524 88.161 87.642C88.4083 87.43 88.5477 86.3366 88.6696 85.9711C89.1523 84.5229 90.4112 82.8241 90.6128 81.4125C90.9358 79.1516 93.8501 76.7085 95.5346 75.2013C98.0023 72.9934 101.519 71.8549 103.853 69.6438C105.139 68.4248 107.153 67.4444 108.774 66.8469C110.885 66.0694 112.962 64.6559 115.022 63.7049C116.95 62.8151 118.805 61.8509 120.87 61.3076C124.475 60.3588 128.919 60.406 132.621 60.1816C141.112 59.667 149.697 59.7261 158.138 58.8376C160.034 58.638 161.966 58.4542 163.859 58.1838C165.248 57.9853 166.9 57.2212 168.272 57.2212C177.272 57.2212 186.396 55.6538 194.516 60.563C198.604 63.0348 202.542 65.6346 206.502 68.1545C208.211 69.2418 210.22 70.1743 211.769 71.4418C212.886 72.3554 214.645 73.6597 215.855 74.3658C218.855 76.1155 221.765 80.0828 222.957 83.3013C223.917 85.8935 225.316 88.1805 226.226 90.8203C226.856 92.6482 227.659 94.3775 228.333 96.1961C229.663 99.7889 231.202 103.989 231.202 107.892C231.202 110.507 231.202 113.123 231.202 115.738" stroke="#CACAD4" stroke-linecap="round"/>
<path d="M228.914 75.8551C228.914 73.2447 228.369 70.0517 228.932 67.5189C229.373 65.5341 228.737 63.161 229.313 61.2168C230.031 58.7959 229.567 55.6965 229.567 53.1712C229.567 51.0217 229.034 47.83 227.588 46.1426C226.311 44.6535 224.807 43.1621 223.429 41.7838C221.832 40.1865 219.787 39.0618 218.198 37.534C215.951 35.3736 212.205 33.8954 209.317 32.8846C205.454 31.5325 202.16 29.4603 198.511 27.6359C195.072 25.9163 191.833 23.9602 188.377 22.3146C185.688 21.0342 182.756 19.3244 179.932 18.5006C176.064 17.3727 172.146 15.1869 168.036 15.0499C164.666 14.9376 161.274 15.0499 157.902 15.0499C154.521 15.0499 151.223 15.3768 147.84 15.3768C145.501 15.3768 143.155 16.0306 140.812 16.0306C139.703 16.0306 136.541 15.9878 135.581 16.521C133.158 17.8671 129.605 16.8574 127.317 18.9002C125.896 20.1695 124 21.471 122.414 22.5688C121.334 23.3166 120.036 24.306 118.818 24.7846C117.466 25.3158 116.309 26.4004 114.949 26.8187C113.61 27.2307 111.949 27.7333 110.718 28.3079C108.524 29.3318 105.752 30.111 103.38 30.6689C98.1284 31.9047 94.2703 35.1815 89.6684 37.7701C87.403 39.0444 85.5848 41.3576 83.6932 43.0915C81.8052 44.8222 80.2418 46.617 78.4627 48.4673C74.4875 52.6015 71.9971 57.9983 71.9971 63.7413C71.9971 66.2778 71.9971 68.8144 71.9971 71.351C71.9971 72.9068 71.9971 74.4627 71.9971 76.0185C71.9971 77.3506 72.7381 78.4139 72.9597 79.6327C73.1827 80.8589 73.6261 81.9492 74.0312 83.1197C74.4163 84.2321 75.5291 85.4897 75.5931 86.6431C75.7361 89.2172 76.0944 91.7246 75.5205 94.3073C74.2299 100.115 74.6124 106.341 74.6124 112.305C74.6124 116.065 74.6124 119.824 74.6124 123.584" stroke="#CACAD4" stroke-linecap="round"/>
<path d="M112.534 48.3947C112.988 44.3042 116.712 40.6122 118.673 37.2798C120.334 34.4557 123.816 32.9236 126.446 31.2501C128.808 29.7467 131.708 29.4477 134.255 28.2898C137.123 26.9863 140.537 27.1456 143.663 27.1456C148.469 27.1456 153.32 27.1223 158.047 27.4725C159.392 27.5722 160.924 28.4767 162.206 28.9254C163.651 29.4313 165.1 29.8731 166.474 30.56C168.622 31.634 170.937 32.8632 173.194 33.6838C175.261 34.4355 177.205 35.7035 179.223 36.5533C180.831 37.2301 182.615 37.9597 183.982 39.0778C185.179 40.0575 187.01 40.843 188.377 41.6022C189.488 42.2193 190.464 43.424 191.646 43.818" stroke="#CACAD4" stroke-linecap="round"/>
<path d="M110.572 49.3754C111.976 49.3754 113.754 48.0883 115.077 47.5592C117.378 46.6385 120.039 46.2144 122.45 45.7068C125.988 44.962 129.543 44.1449 133.166 44.1449C135.38 44.1449 137.414 43.5749 139.595 43.491C140.631 43.4512 141.695 42.8372 142.682 42.8372C148.346 42.8372 153.754 41.8565 159.445 41.8565C165.657 41.8565 172.216 42.1834 178.243 42.1834C179.393 42.1834 180.642 42.975 181.839 43.146C183.198 43.3401 184.585 43.5383 185.925 43.8361C187.219 44.1237 190.576 45.9571 191.319 44.4718" stroke="#CACAD4" stroke-linecap="round"/>
<path d="M4 279.193C6.95922 279.193 10.6644 277.862 12.4996 275.415C13.7269 273.779 15.8513 270.062 18.0934 269.422C22.0456 268.293 26.4874 265.063 30.8066 264.809C32.1095 264.732 36.7891 262.352 37.8533 261.394C40.3878 259.113 44.5975 259.137 47.4426 257.326C53.2137 253.654 61.053 253.426 66.6213 248.972C68.5334 247.442 71.0794 246.285 73.3048 245.049C75.6254 243.76 80.2276 241.608 81.8044 239.637C83.8735 237.05 89.7272 233.171 92.9194 232.772C96.8874 232.276 99.4575 225.353 99.4575 221.984C99.4575 216.41 98.8037 211.532 98.8037 205.965" stroke="#CACAD4" stroke-linecap="round"/>
<path d="M204.069 217.734C204.069 224.492 208.355 228.558 211.115 234.079C212.712 237.273 212.568 240.673 212.568 244.213C212.568 248.396 213.222 252.935 213.222 257.29C213.222 260.701 211.261 264.035 211.261 267.424C211.261 270.264 208.094 273.115 207.374 275.633C206.074 280.183 202.327 286.929 198.184 289" stroke="#CACAD4" stroke-linecap="round"/>
<path d="M86.3812 258.271C86.3812 262.411 86.3812 266.552 86.3812 270.693C86.3812 272.446 88.5222 277.12 89.7956 278.394C93.4908 282.089 95.7226 287.692 102.073 287.692" stroke="#CACAD4" stroke-linecap="round"/>
<path d="M207.338 224.926C211.712 225.44 214.11 232.325 218.089 233.462C219.736 233.932 221.192 236.465 223.029 236.694C224.272 236.85 227.246 239.062 228.26 239.964C231.743 243.06 237.23 244.491 241.3 246.865C246.466 249.879 251.014 252.764 256.374 255.147C261.323 257.346 266.624 259.471 271.702 260.922C274.535 261.731 277.535 264.207 280.42 265.317C282.814 266.238 286.979 268.438 288.92 270.185C290.455 271.566 294.381 272.108 295.603 273.635C296.24 274.431 299.388 275.651 300.434 276.214C301.645 276.866 302.482 277.82 303.74 278.539C304.658 279.064 309.232 281.649 309.333 282.462C309.545 284.154 311.603 286.193 312.602 287.692" stroke="#CACAD4" stroke-linecap="round"/>
<path d="M3 4C3 21.3333 3 38.6667 3 56C3 66.3064 1 76.6186 1 87C1 91.2877 2 95.4494 2 99.5C2 100.915 2.63419 104.677 3.22222 106C4.2918 108.407 3.25457 111.258 4.5 113.5C6.16179 116.491 5 122.596 5 126C5 131.259 5 136.519 5 141.778C5 151.352 5 160.926 5 170.5C5 191.785 3 212.232 3 233.5C3 242.167 3 250.833 3 259.5C3 263.317 1.34259 284 5 284C13.9911 284 21.5834 286 30.4444 286C41.2763 286 51.8771 285 62.7778 285C70.7626 285 78.5006 286.011 86.3333 287.056C89.2169 287.44 103.522 286.653 105 288.5C106.573 290.466 119.933 289.292 122.667 289.778C130.975 291.255 141.657 291 150 291C166.785 291 183.939 292 200.889 292C214.569 292 228.193 291 242 291C259 291 276 291 293 291C297.167 291 301.333 291 305.5 291C312.248 291 313 289.677 313 282.556C313 261.301 315 239.336 315 218C315 193.404 316 168.346 316 143.5C316 117.418 314 92.2559 314 66.0556C314 53.1869 315 40.0142 315 27.4444C315 22.6296 315 17.8148 315 13C315 8.36628 312.762 8.20649 309.778 5.22222C306.505 1.94918 297.371 4.4107 293 3.5C284.545 1.7385 274.589 5.21499 266.444 2.5C258.726 -0.0729706 247.191 2 239.222 2C228.704 2 218.185 2 207.667 2C187.802 2 167.813 1 148.056 1C119.933 1 92.0698 3 64 3C43.0865 3 22.0793 4 1 4" stroke="#CACAD4" stroke-linecap="round"/>
<path d="M118.5 231C120.64 234.273 122.64 237.505 123.472 241.25C123.857 242.981 125.055 244.777 126.389 246.111C127.276 246.998 128.668 250.155 129.778 250.472C131.504 250.965 132.554 252.715 133.611 253.889C135.958 256.496 141.132 259.792 144.111 257.111C145.136 256.188 145.627 256.849 146.389 257.611C147.115 258.337 148.745 258 149.75 258C150.845 258 152.181 257.79 153.25 258.028C154.799 258.372 156.06 261.415 157.5 261.5C161.347 261.726 169.227 260.91 169.5 256C169.65 253.3 173.071 250.873 174.722 249.222C176.207 247.738 178.924 247.461 180.611 246.111C182.102 244.918 184.194 244.382 185.5 242.75C187.066 240.793 188.325 238.746 189.389 236.5C191.356 232.347 195 228.795 195 224" stroke="#CACAD4" stroke-linecap="round"/>
</g>
</svg>
