<svg width="888" height="110" viewBox="0 0 888 110" fill="none" xmlns="http://www.w3.org/2000/svg">
<path d="M522 52L570 68L684 107H197L522 52Z" fill="url(#paint0_linear_1013_37)"/>
<path d="M676.5 107H684L681 105.974L522 52L676.5 107Z" fill="url(#paint1_linear_1013_37)"/>
<path d="M325 55L373 71L487 110H0L325 55Z" fill="url(#paint2_linear_1013_37)"/>
<path d="M479.5 110H487L484 108.974L325 55L479.5 110Z" fill="url(#paint3_linear_1013_37)"/>
<path d="M726 0L800 110H888H401L726 0Z" fill="url(#paint4_linear_1013_37)"/>
<path d="M880.5 110H888L885 109.145L726 0L880.5 110Z" fill="url(#paint5_linear_1013_37)" fill-opacity="0.43"/>
<defs>
<linearGradient id="paint0_linear_1013_37" x1="440" y1="89" x2="440.5" y2="107" gradientUnits="userSpaceOnUse">
<stop/>
<stop offset="1" stop-color="#050505" stop-opacity="0"/>
</linearGradient>
<linearGradient id="paint1_linear_1013_37" x1="440" y1="89" x2="440.5" y2="107" gradientUnits="userSpaceOnUse">
<stop stop-color="#383838"/>
<stop offset="1" stop-color="#4B4B4B" stop-opacity="0"/>
</linearGradient>
<linearGradient id="paint2_linear_1013_37" x1="243" y1="92" x2="243.5" y2="110" gradientUnits="userSpaceOnUse">
<stop/>
<stop offset="1" stop-opacity="0"/>
</linearGradient>
<linearGradient id="paint3_linear_1013_37" x1="243" y1="92" x2="243.5" y2="110" gradientUnits="userSpaceOnUse">
<stop stop-color="#202020"/>
<stop offset="1" stop-color="#4B4B4B" stop-opacity="0"/>
</linearGradient>
<linearGradient id="paint4_linear_1013_37" x1="637.5" y1="110" x2="642.023" y2="44.0311" gradientUnits="userSpaceOnUse">
<stop offset="0.109375" stop-color="#070707"/>
<stop offset="1"/>
</linearGradient>
<linearGradient id="paint5_linear_1013_37" x1="644" y1="74.0001" x2="645.996" y2="109.917" gradientUnits="userSpaceOnUse">
<stop stop-color="#595959"/>
<stop offset="1" stop-color="#6C6C6C" stop-opacity="0.17"/>
</linearGradient>
</defs>
</svg>
