<svg width="321" height="96" viewBox="0 0 321 96" fill="none" xmlns="http://www.w3.org/2000/svg">
<line y1="0.5" x2="33" y2="0.5" stroke="white"/>
<line x1="37" y1="7.5" x2="59" y2="7.5" stroke="white"/>
<line y1="13.5" x2="33" y2="13.5" stroke="white"/>
<line x1="64" y1="13.5" x2="97" y2="13.5" stroke="white"/>
<line y1="26.5" x2="75" y2="26.5" stroke="white"/>
<line x1="130" y1="26.5" x2="205" y2="26.5" stroke="white"/>
<line x1="43" y1="42.5" x2="215" y2="42.5" stroke="white"/>
<line x1="44" y1="59.5" x2="291" y2="59.5" stroke="white"/>
<line x1="28" y1="95.5" x2="163" y2="95.5" stroke="white"/>
<line x1="186" y1="79.5" x2="321" y2="79.5" stroke="white"/>
<line x1="5" y1="79.5" x2="140" y2="79.5" stroke="white"/>
<line x1="135" y1="13.5" x2="168" y2="13.5" stroke="white"/>
<line x1="80" y1="0.5" x2="113" y2="0.5" stroke="white"/>
<line x1="75" y1="7.5" x2="96" y2="7.5" stroke="white"/>
<line x1="124" y1="0.5" x2="157" y2="0.5" stroke="white"/>
<line x1="163" y1="7.5" x2="179" y2="7.5" stroke="white"/>
<line x1="189" y1="0.5" x2="222" y2="0.5" stroke="white"/>
</svg>
