<svg width="35" height="32" viewBox="0 0 35 32" fill="none" xmlns="http://www.w3.org/2000/svg">
<path d="M9.00002 4.37501C8.95207 4.85447 8.57172 5.34595 8.34724 5.75001C8.1202 6.15868 7.60857 6.69701 7.27779 7.02778C7.07299 7.23259 6.53132 7.85893 6.50002 8.12501C6.47208 8.36247 6.30842 8.58095 6.25696 8.81251C6.22274 8.96651 5.91864 9.25001 6.07641 9.25001C6.3226 9.25001 6.60402 8.88313 6.77779 8.72223C7.12363 8.40201 7.5992 8.09023 7.99307 7.81945C8.60726 7.3972 9.1665 6.92159 9.77779 6.50001C10.3735 6.08914 10.868 5.61781 11.4028 5.19445C11.8614 4.83135 11.995 4.22969 12.3195 3.81251C12.6236 3.42145 12.763 2.95654 13.0695 2.56251C13.2746 2.29873 13.75 1.49223 13.75 1.82639C13.75 3.08128 13.6889 4.11055 12.75 5.00001C9.78106 7.8127 6.34071 9.9652 3.73613 13.1667C3.51523 13.4382 3.3013 13.8859 3.12502 14.1944C2.94748 14.5051 3.07461 14.5 3.37502 14.5C4.62192 14.5 5.82073 12.7668 6.55557 11.9167C8.26878 9.93473 10.1948 8.14118 12.4028 6.73612C13.6179 5.96286 15.0146 5.47663 16.1736 4.61806C16.7123 4.21905 17.1132 3.89688 17.5 3.34723C17.6485 3.13626 17.6542 2.80726 17.7778 2.65278C17.9291 2.46368 17.9862 1.74953 18 1.50001C18.0185 1.16794 17.9986 1.46313 17.7986 1.77084C17.1338 2.79371 16.2654 3.74831 15.4931 4.69445C13.7619 6.81516 12.2722 9.14399 10.4445 11.1806C9.47687 12.2587 8.58543 13.4699 7.88196 14.7361C6.94058 16.4306 5.70278 17.9758 4.97224 19.75C4.30531 21.3697 6.99366 16.8781 7.81946 15.3333C8.30641 14.4225 8.64218 13.4942 9.06252 12.5694C9.26043 12.134 9.30047 11.7658 9.63196 11.3681C9.90879 11.0359 10.1004 10.6973 10.3056 10.3194C10.5719 9.82885 11.0047 9.50639 11.3195 9.05556C11.651 8.58069 12.0013 8.23295 12.375 7.81251C12.6726 7.47767 13.1961 7.35531 13.5556 7.09723C14.3399 6.53409 15.1984 6.00811 15.9445 5.40278C17.0092 4.53895 15.4436 6.57912 15.257 6.85417C14.0651 8.61062 12.6003 9.91553 10.9167 11.1667C9.82301 11.9794 8.50192 12.6723 7.54863 13.6528C6.51425 14.7167 5.46892 15.7723 4.55557 16.9444C3.84665 17.8542 3.00539 18.8155 2.07641 19.5C2.01303 19.5467 1.77216 19.75 2.00002 19.75C2.34507 19.75 2.65939 19.3378 2.87502 19.125C4.66531 17.3583 6.33718 15.4967 8.19446 13.7986C10.2428 11.9259 12.57 10.4117 14.875 8.87501C16.6357 7.70122 18.5421 6.72319 20.2083 5.41667C20.8899 4.88227 21.5034 4.26162 22.2431 3.81251C22.9447 3.38651 23.7724 2.80195 24.2917 2.15278C24.3286 2.1066 23.6448 2.00001 23.5695 2.00001C23.0543 2.00001 22.8282 1.97299 22.4445 2.36806C20.5486 4.31968 18.3343 5.93452 16.4028 7.84723C14.098 10.1296 11.9446 12.5357 10.0278 15.1528C9.0886 16.4351 8.02072 17.6243 7.12502 18.9306C6.68233 19.5762 6.35642 20.4053 5.87502 21C5.48996 21.4757 6.27004 20.9814 6.39585 20.8472C6.98088 20.2232 7.43244 19.495 7.97224 18.8333C9.40027 17.0829 10.9334 15.4269 12.6528 13.9583C15.326 11.6751 18.2065 9.61842 20.9792 7.45834C21.9636 6.69142 23.2732 5.89051 24.0417 4.87501C24.4244 4.36921 24.782 3.92657 25.2292 3.45139C28.0611 0.442455 19.3774 9.29312 16.625 12.375C14.7563 14.4674 12.5028 16.1464 10.4514 18.0486C9.5913 18.8462 8.80084 19.6992 7.97224 20.5278C7.67783 20.8222 7.12502 21.3531 7.12502 21.8125C7.12502 22.0221 7.24705 22.0118 7.37502 21.8472C7.96929 21.0832 8.32698 20.0432 8.86113 19.2222C11.8485 14.6305 15.8482 10.9626 19.6042 7.02778C20.7824 5.79346 21.6585 4.32356 23.25 3.52778C23.4849 3.41036 23.0166 5.94186 22.9722 6.09028C22.1926 8.69921 20.8106 11.1386 19.1528 13.2917C16.2374 17.0781 12.2161 19.8671 9.18057 23.5417C8.81723 23.9815 8.3514 24.3545 8.01391 24.8125C7.82085 25.0745 7.71755 25.4156 7.52779 25.6528C7.33123 25.8985 7.69075 26.1505 7.88891 25.9028C8.90331 24.6348 9.77742 23.231 10.757 21.9306C12.4065 19.7406 14.2563 17.6719 15.9861 15.5417C17.0796 14.1951 18.1378 12.8488 19.2986 11.5625C20.0427 10.738 20.8026 9.7915 21.4306 8.87501C21.8456 8.2693 22.3288 7.70308 22.9583 7.31945C23.955 6.71213 24.7228 5.77655 25.8056 5.31251C26.5919 4.97549 25.3797 6.61992 25.2083 6.87501C23.2666 9.76599 20.8087 12.3707 18.4861 14.9514C16.5639 17.0872 14.7137 19.2866 12.875 21.4931C11.7228 22.8757 10.5371 24.234 9.56252 25.75C9.37918 26.0352 9.34847 26.2195 9.22224 26.5C9.1572 26.6445 8.60899 27.5285 8.77779 27.4722C9.07251 27.374 9.26997 27.0781 9.45141 26.8472C10.1381 25.9733 10.806 25.1175 11.5695 24.3056C14.1626 21.5478 16.9584 18.9531 19.4722 16.125C20.4398 15.0365 21.3646 13.8993 22.3958 12.8681C23.4021 11.8618 24.6567 11.0745 25.5695 9.97917C26.1457 9.28767 26.805 8.66888 27.375 7.97223C28.3504 6.78011 27.0298 8.75443 26.8472 9.03473C24.7898 12.1943 22.323 15.0656 19.8333 17.8889C18.5563 19.337 17.1782 20.7212 16.0417 22.2778C14.8534 23.9052 13.1577 25.3652 12.25 27.1806C12.0583 27.564 11.7595 27.9646 11.625 28.3681C11.4486 28.8974 12.1557 27.3104 12.2222 27.1945C13.4652 25.0272 14.7863 23.0658 16.5417 21.2639C18.3899 19.3668 20.0969 17.284 22.1875 15.6389C23.747 14.4118 25.2752 13.1134 26.8889 11.9583C27.5555 11.4812 28.2762 10.9936 28.875 10.4375C29.1349 10.1961 29.4281 9.81373 29.75 9.65278C29.8581 9.59874 29.7055 9.89491 29.6458 10C29.0468 11.0555 28.3053 12.0257 27.5 12.9306C24.3036 16.5221 20.2726 19.2479 17.0139 22.7639C15.6509 24.2345 14.2432 25.6977 13.125 27.375C12.9234 27.6774 12.4635 28.1956 12.382 28.5625C12.2044 29.3617 12.9248 28.5959 13.1459 28.3333C13.7664 27.5964 14.2771 26.7845 14.9445 26.0833C16.2491 24.7127 17.7368 23.5903 19.2639 22.4861C21.2495 21.0504 23.0983 19.5408 24.9722 17.9792C26.1476 16.9997 27.2034 15.9181 28.2778 14.8194C29.714 13.3509 31.5016 12.2906 33.0417 10.9306C33.2188 10.7741 34.2475 9.72823 33.8958 10.5556C33.4927 11.5041 32.7536 12.3437 32.0833 13.1111C31.0735 14.2673 30.0018 15.4237 28.8056 16.3889C25.8987 18.7342 22.7706 20.8545 20.125 23.5C18.7071 24.9179 17.3599 26.3963 16.0834 27.9445C15.9151 28.1485 14.3372 30.3374 14.4445 30.3681C14.679 30.4351 14.9215 30.2049 15.0556 30.0556C15.901 29.1136 16.6038 28.0073 17.3889 27.0139C19.2648 24.6403 21.7813 22.7528 24.2639 21.0556C25.3686 20.3003 26.4633 19.5309 27.5695 18.7778C28.3646 18.2364 29.2787 17.7756 30.0139 17.1528C30.9061 16.3969 31.7062 15.5252 32.5417 14.7083C33.3576 13.9106 31.9506 15.5296 31.8611 15.6319C30.1478 17.5901 28.1084 19.3794 26.1111 21.0417C23.5227 23.1959 20.9472 25.3127 18.4722 27.5972C18.0814 27.958 16.4405 29.3855 16.632 30.0556C16.7249 30.3808 18.6853 28.2453 18.7361 28.1945C20.9486 25.982 23.4448 24.1393 25.8472 22.1458C27.7219 20.5903 29.6992 19.1459 31.5417 17.5556C32.0449 17.1212 32.209 17.1628 31.9097 17.8264C31.4778 18.7842 30.7602 19.7417 30.1042 20.5556C27.3749 23.9418 23.5648 26.376 20.4722 29.4028C20.1494 29.7187 19.8333 30.0417 19.5139 30.3611C19.3541 30.521 18.7323 30.75 18.9583 30.75C19.1363 30.75 19.2048 30.7351 19.3333 30.5833C20.1489 29.621 20.8768 28.5934 21.7222 27.6528C24.9238 24.091 28.4059 20.4649 32.132 17.4375C33.0502 16.6915 32.0436 17.9715 31.7778 18.2917C29.8921 20.563 27.6935 22.4561 25.4861 24.3958C23.822 25.8583 22.2666 27.3649 20.7361 28.9583C20.6235 29.0756 19.404 30.4723 19.875 30.5C20.0153 30.5083 20.151 30.4969 20.2639 30.4028C21.0956 29.7097 21.7387 28.6017 22.4653 27.7986C24.1542 25.9319 26.1054 24.1346 28.0833 22.5695C29.108 21.7587 30.0379 20.8415 31.0972 20.0764C31.5214 19.7701 31.4233 19.9092 31.25 20.5C30.7362 22.2516 29.2077 24.0761 27.9931 25.4236C27.2308 26.2693 26.4199 27.0642 25.625 27.875C25.298 28.2086 24.7865 28.5343 24.5625 28.9375C23.9274 30.0807 26.04 26.7774 26.8403 25.7431C28.5516 23.5315 30.7489 21.7989 32.6111 19.7361C32.8762 19.4425 32.8429 19.4053 32.6111 19.7014C31.7339 20.8223 30.4767 21.7622 29.3889 22.6667C26.7918 24.8261 23.6267 26.5257 21.5 29.1528C21.4257 29.2445 20.8225 30.088 21.3472 29.7014C22.0329 29.1962 22.5823 28.3716 23.1389 27.7361C23.9568 26.8023 24.7701 25.8871 25.6806 25.0417C26.3038 24.4629 26.9131 23.864 27.5903 23.3472C28.4376 22.7006 27.6513 23.8664 27.4722 24.1389C26.1928 26.0859 24.3584 27.7798 22.6528 29.3542C21.802 30.1395 22.3369 29.7186 22.8333 29.0695C24.2103 27.2688 26.1978 25.8979 28.1458 24.7847C28.9104 24.3478 29.696 23.9436 30.4722 23.5278C30.7567 23.3754 31.0554 23.2406 31.3333 23.0764C31.3969 23.0388 31.4726 22.862 31.5 22.9306C31.9257 23.9949 30.2289 25.8822 29.5695 26.5417C28.8974 27.2138 28.1703 27.9115 27.4445 28.5278C27.3585 28.6007 26.8244 29.0019 26.8333 28.9722C26.95 28.5834 27.2935 28.206 27.507 27.8681C28.2708 26.6587 29.249 25.6026 30.375 24.7222C30.4589 24.6567 31.544 23.7371 31.3195 24.125C30.4781 25.5783 28.7894 26.63 27.4514 27.5625C27.358 27.6276 26.7024 28.3007 26.7778 28.0972C27.559 25.9881 29.2747 24.4813 29.9306 22.3264C29.9715 22.192 30.1408 21.3069 30.125 21.5278C30.0323 22.8251 28.1276 24.0564 27.1528 24.5833C27.0729 24.6265 25.9989 25.2613 25.875 25.0417C25.3864 24.1755 25.4406 22.5016 25.4028 21.5278C25.2913 18.6556 26.3722 16.0643 27.6945 13.5694C27.7763 13.4151 28.04 12.964 27.9722 13.125C27.407 14.4675 26.2679 15.5958 25.2431 16.5903C22.2232 19.5206 18.5164 21.617 14.9861 23.8611C14.922 23.9019 14.2048 24.4245 14.0695 24.3472C13.7847 24.1845 14.0745 22.5931 14.0972 22.4236C14.4833 19.5409 15.7622 17.1038 17.625 14.9306C17.8959 14.6146 18.5072 14.1517 18.6042 13.7153C18.6185 13.6507 18.4893 13.7847 18.4445 13.8333C18.0226 14.2911 17.5536 14.6861 17.0625 15.0694C13.8639 17.5659 10.2882 19.8007 6.76391 21.8195C6.51008 21.9648 6.27425 22.1684 6.01391 22.2986C5.42932 22.5909 6.66685 21.153 7.11113 20.6736C9.1497 18.4741 11.7578 16.8449 14.4236 15.5208C15.2495 15.1106 16.1178 14.7741 16.9236 14.3264C17.1196 14.2175 16.8377 14.7724 16.7361 14.9722C16.0092 16.4023 15.0145 17.6588 13.9445 18.8472C11.9493 21.063 9.65127 23.1015 7.45141 25.1181C7.32731 25.2318 7.08613 25.5648 7.15279 25.1945C7.32246 24.2519 7.88434 23.2514 8.33335 22.4306C9.84644 19.6644 12.616 17.6073 15.1111 15.7639C15.6539 15.3629 16.265 14.7959 16.875 14.5069C16.9745 14.4598 16.4528 15.8235 16.3889 15.9444C14.9775 18.6147 13.2457 21.0903 11.5139 23.5556C11.189 24.0181 10.8409 24.4628 10.5139 24.9236C10.4293 25.0428 10.0242 25.7685 10.3542 25.25C11.5813 23.3217 13.9701 21.2402 16.132 20.4167C16.432 20.3024 16.0897 21.3999 16.0834 21.4167C15.5044 22.9571 14.2021 24.2503 13.0556 25.3889C12.541 25.8999 11.9586 26.2813 11.4028 26.7361C11.3939 26.7434 10.9861 27.1153 11.0764 26.9167C12.0753 24.7192 14.0035 23.1065 15.6806 21.4445C15.7797 21.3462 16.692 20.2662 16.8542 20.3472C17.0427 20.4415 16.2982 21.942 16.2361 22.0764C15.8422 22.93 15.3367 23.7064 14.8611 24.5139C14.2508 25.5504 15.5064 23.4892 15.5417 23.4306C17.5389 20.1117 20.4292 17.682 23.1389 14.9722C24.4715 13.6396 27.9096 9.14324 26.8195 10.6806C26.3675 11.318 25.8323 11.8959 25.3542 12.5139C25.1644 12.7592 24.7197 13.4215 24.9722 12.6806C25.5391 11.0179 26.5278 9.45175 27.7778 8.22223C27.984 8.01939 28.3749 7.79187 28.4861 7.51389C28.5131 7.44653 28.4881 8.21437 28.4722 8.33334C28.3057 9.58206 27.9025 10.7406 27.25 11.8125C27.1081 12.0457 26.3889 12.8859 26.3889 13.1736C26.3889 13.5091 26.6372 12.5456 26.8195 12.2639C27.5337 11.1601 28.5512 10.2424 29.625 9.5C30.2559 9.06387 30.9638 8.76525 31.6597 8.45139C32.1291 8.23972 32.4713 8.02303 32.2986 8.69445C31.953 10.0386 30.9 11.2478 30.0972 12.3472C30.0546 12.4056 29.6126 13.0428 29.5278 12.7222C29.2939 11.8385 29.5 10.6701 29.5 9.76389C29.5 9.41388 29.7872 7.32378 29.2222 7.63195C28.7188 7.90658 26.2786 9.60702 25.8056 9.29167C25.4899 9.08121 25.5271 7.8214 25.5208 7.53473C25.4948 6.35142 25.6384 5.2375 26.2014 4.18751C26.2701 4.05939 27.4951 2.07196 27.3611 2.70834C27.1207 3.85058 25.9813 5.03098 25.3056 5.94445C25.0031 6.35332 24.2618 7.10096 24.757 6.06945C24.8287 5.91998 25.8091 4.4612 25.9722 4.80556C26.1142 5.10523 26.0134 5.72778 25.9722 6.04167C25.9127 6.49538 25.8168 6.38617 26.0556 6.05556C26.4485 5.51152 27.0738 5.09383 27.5764 4.65973C27.6094 4.63127 28.0864 4.05899 28.1181 4.20139C28.1931 4.53912 27.8579 5.03427 27.7222 5.30556C27.316 6.11795 26.8129 6.8335 26.3333 7.59723C26.327 7.60741 27.9816 5.3083 28.4583 5.50695C28.8436 5.66746 27.6572 7.75047 27.8889 7.61806C29.1294 6.90921 27.4843 8.60166 27.25 8.87501C26.7703 9.43471 26.3116 10.0003 25.8889 10.6042C25.7589 10.7898 25.4447 11.3846 25.507 11.1667C25.6179 10.7784 26.8908 9.76778 26.8472 10C26.6897 10.8404 25.8034 11.3574 25.375 12" stroke="white" stroke-width="2" stroke-linecap="round"/>
</svg>
