<svg width="24" height="24" viewBox="0 0 24 24" fill="none" xmlns="http://www.w3.org/2000/svg">
<path d="M12 2C6.49 2 2 6.49 2 12C2 17.51 6.49 22 12 22C17.51 22 22 17.51 22 12C22 6.49 17.51 2 12 2ZM3.01 12C3.01 10.7 3.29 9.46 3.79 8.34L8.08 20.09C5.08 18.63 3.01 15.56 3.01 12ZM12 20.99C11.12 20.99 10.27 20.86 9.46 20.62L12.16 12.78L14.92 20.35C14.94 20.39 14.96 20.44 14.98 20.47C14.05 20.81 13.05 20.99 12 20.99ZM13.24 7.78C13.78 7.75 14.27 7.69 14.27 7.69C14.75 7.63 14.7 6.92 14.21 6.95C14.21 6.95 12.75 7.06 11.81 7.06C10.93 7.06 9.44 6.95 9.44 6.95C8.96 6.93 8.9 7.67 9.39 7.7C9.39 7.7 9.85 7.76 10.33 7.79L11.73 11.63L9.76 17.53L6.49 7.78C7.03 7.76 7.52 7.7 7.52 7.7C8 7.64 7.95 6.93 7.46 6.96C7.46 6.96 6 7.07 5.06 7.07C4.89 7.07 4.69 7.07 4.48 7.06C6.1 4.62 8.86 3.01 12 3.01C14.34 3.01 16.47 3.9 18.07 5.37C18.03 5.37 17.99 5.36 17.95 5.36C17.07 5.36 16.44 6.13 16.44 6.96C16.44 7.7 16.87 8.33 17.32 9.07C17.66 9.67 18.06 10.44 18.06 11.55C18.06 12.32 17.76 13.21 17.38 14.46L16.48 17.46L13.24 7.78ZM19.89 7.69C21.0132 9.74564 21.2895 12.1586 20.6601 14.4149C20.0306 16.6712 18.5451 18.5927 16.52 19.77L19.27 11.83C19.78 10.55 19.95 9.52 19.95 8.61C19.95 8.28 19.93 7.97 19.89 7.69Z" fill="#8D8D8D"/>
</svg>
