<svg width="24" height="20" viewBox="0 0 24 20" fill="none" xmlns="http://www.w3.org/2000/svg">
<path d="M1.75 2.5C3.222 2.5 4.15787 1 5.625 1C7.22893 1 8.87614 0.750002 10.3611 0.750002C12.0324 0.750002 13.7037 0.750002 15.375 0.750002C16.5958 0.750002 19.3722 0.2777 20.25 1.375C20.5174 1.70923 21.4224 2.13854 21.8611 2.26389C22.0311 2.31247 22.9899 3.3288 23 3.5C23.0925 5.0717 23.25 6.42386 23.25 8C23.25 11.1646 23.2226 14.0823 22.25 17" stroke="white" stroke-opacity="0.5" stroke-linecap="round"/>
<path d="M1.5 2.5C1.14746 5.32029 0.75 7.96136 0.75 11C0.75 12.4713 1 14.0324 1 15.375C1 15.9421 1.66507 16.7223 1.94444 17.25C2.05507 17.459 3.24558 18.25 3.375 18.25C4.0068 18.25 4.65852 18.75 5.375 18.75C6.28812 18.75 7.47207 18.8464 8.36111 19.0556C10.4828 19.5548 12.9273 19.25 15.125 19.25C16.75 19.25 18.375 19.25 20 19.25C21.8314 19.25 22.75 19.0381 22.75 17" stroke="white" stroke-opacity="0.5" stroke-linecap="round"/>
<path d="M9.25 6C9.25 8.52373 9.75 10.8007 9.75 13.25" stroke="white" stroke-opacity="0.5" stroke-linecap="round"/>
<path d="M9 6.25C10.2368 6.25 10.9894 7.60051 11.6944 8.30556C12.1233 8.73442 13.4276 9.93266 14 10C15.9423 10.2285 12.4428 11.7458 12.0556 12.0556C11.3628 12.6098 9.95395 12.5921 9.5 13.5" stroke="white" stroke-opacity="0.5" stroke-linecap="round"/>
</svg>
