<svg width="28" height="24" viewBox="0 0 28 24" fill="none" xmlns="http://www.w3.org/2000/svg">
<path d="M14 0.156006C9.94512 0.156006 6.36119 0.605272 4.17293 0.947206C3.28925 1.07931 2.46657 1.5039 1.82061 2.16126C1.17464 2.81861 0.737887 3.67566 0.571767 4.61187C0.182749 6.93671 -0.00852274 9.29436 0.000291223 11.656C0.000291223 14.6613 0.290337 17.0595 0.571767 18.7001C0.73728 19.6366 1.17384 20.4941 1.81992 21.1515C2.466 21.809 3.289 22.2334 4.17293 22.3648C6.36981 22.7067 9.96523 23.156 14 23.156C18.0348 23.156 21.6302 22.7067 23.8271 22.3648C24.711 22.2334 25.534 21.809 26.1801 21.1515C26.8262 20.4941 27.2628 19.6366 27.4283 18.7001C27.8167 16.3752 28.0079 14.0176 27.9997 11.656C27.9997 8.65987 27.7126 6.25714 27.4283 4.61187C27.2622 3.67566 26.8254 2.81861 26.1794 2.16126C25.5335 1.5039 24.7108 1.07931 23.8271 0.947206C20.5732 0.434476 17.2892 0.170073 14 0.156006V0.156006ZM14 2.45601C17.9128 2.45601 21.4091 2.88227 23.5241 3.21041C23.964 3.27769 24.3728 3.49098 24.6929 3.82009C25.0129 4.1492 25.2279 4.57747 25.3075 5.04427C25.5688 6.56227 25.8459 8.81321 25.8459 11.656C25.8459 14.4957 25.5688 16.7497 25.3075 18.2693C25.2291 18.7365 25.0144 19.1653 24.6941 19.4943C24.3738 19.8234 23.9643 20.036 23.5241 20.1016C20.3698 20.5897 17.1873 20.8418 14 20.856C10.8127 20.842 7.63025 20.5899 4.4759 20.1016C4.03595 20.0353 3.62678 19.8225 3.3066 19.4936C2.98643 19.1646 2.77155 18.7362 2.69255 18.2693C2.32619 16.0868 2.14597 13.8733 2.1541 11.656C2.1541 8.80401 2.43122 6.56227 2.69255 5.04274C2.77155 4.57583 2.98643 4.14742 3.3066 3.81845C3.62678 3.48948 4.03595 3.27671 4.4759 3.21041C7.6301 2.7206 10.8127 2.46851 14 2.45601V2.45601ZM10.7693 5.07801V18.234L12.3847 17.2619L19.923 12.6619L21.5383 11.656L19.923 10.6501L12.3847 6.05014L10.7693 5.07801ZM12.9231 9.03401L17.1977 11.656L12.9231 14.278V9.03401V9.03401Z" fill="white"/>
</svg>
